<?xml version="1.0" encoding="utf-8"?>
<!-- Generator: Adobe Illustrator 27.5.0, SVG Export Plug-In . SVG Version: 6.00 Build 0)  -->
<svg version="1.1" id="Layer_1" xmlns="http://www.w3.org/2000/svg" xmlns:xlink="http://www.w3.org/1999/xlink" x="0px" y="0px"
	 viewBox="0 0 259.978 360.846" style="enable-background:new 0 0 259.978 360.846;" xml:space="preserve">
<g>
	<g>
		<g>
			<polygon style="fill:#FDD4B5;" points="41.01,355.191 6.652,355.191 6.652,341.111 41.019,350.404 			"/>
			<path style="fill:#B4715A;" d="M41.011,355.433H6.651c-0.134,0-0.243-0.109-0.243-0.242v-14.08c0-0.076,0.035-0.147,0.095-0.192
				c0.06-0.046,0.135-0.064,0.211-0.042l34.368,9.294c0.106,0.029,0.179,0.125,0.179,0.234l-0.008,4.786
				C41.253,355.325,41.144,355.433,41.011,355.433z M6.894,354.948h33.874l0.008-4.358l-33.883-9.163V354.948z"/>
		</g>
		<path style="fill:#FDD4B5;" d="M6.652,341.111v7.508c1.471,0.679,2.984,1.257,4.561,1.741c2.259,0.694,4.551,1.303,6.827,1.939
			c2.062,0.576,4.239,0.867,6.124,1.947c0.457,0.262,0.881,0.574,1.242,0.945H41.01l0.008-4.787L6.652,341.111z"/>
		<g>
			<polygon style="fill:#FDD4B5;" points="171.439,355.191 205.797,355.191 205.797,341.111 171.43,350.404 			"/>
			<path style="fill:#B4715A;" d="M205.797,355.433h-34.358c-0.134,0-0.243-0.108-0.243-0.242l-0.009-4.786
				c0-0.109,0.073-0.206,0.179-0.234l34.367-9.294c0.074-0.022,0.15-0.005,0.211,0.042c0.06,0.046,0.095,0.117,0.095,0.192v14.08
				C206.039,355.324,205.93,355.433,205.797,355.433z M171.681,354.948h33.873v-13.521l-33.882,9.163L171.681,354.948z"/>
		</g>
		<path style="fill:#FDD4B5;" d="M183.642,354.657c0.903-0.375,1.841-0.68,2.786-0.927c1.798-0.47,3.624-0.818,5.423-1.279
			c1.807-0.462,3.581-1.071,5.367-1.609c3.014-0.906,5.942-1.947,8.578-3.574v-6.158l-34.367,9.293l0.008,4.787h11.222
			C182.968,354.991,183.286,354.805,183.642,354.657z"/>
		<g>
			<path style="fill:#BEB1E0;" d="M40.873,345.922c-27.949-0.614-34.222-15.04-34.222-15.04c-2.883,1.201-2.883,9.371-1.922,12.013
				c6.968,6.487,25.467,12.253,36.279,10.572C41.028,353.045,41.095,350.942,40.873,345.922z"/>
			<path style="fill:#7F73A8;" d="M36.952,353.995c-10.688,0-25.97-4.948-32.387-10.923c-0.029-0.026-0.05-0.058-0.063-0.095
				c-0.991-2.726-1.04-11.029,2.057-12.319c0.122-0.052,0.262,0.006,0.316,0.127c0.063,0.143,6.557,14.291,34.005,14.895
				c0.127,0.003,0.231,0.104,0.237,0.232c0.224,5.074,0.152,7.193,0.136,7.566c-0.006,0.116-0.091,0.211-0.206,0.229
				C39.791,353.903,38.413,353.995,36.952,353.995z M4.938,342.758c7.195,6.652,25.492,12.002,35.836,10.5
				c0.022-0.682,0.053-2.78-0.133-7.098c-25.671-0.637-33.134-13.104-34.1-14.954C4.065,332.627,4.04,340.179,4.938,342.758z"/>
		</g>
		<path style="fill:#BEB1E0;" d="M40.873,345.922c-27.949-0.614-34.222-15.04-34.222-15.04c-0.708,0.295-1.24,1.013-1.629,1.963
			c0.665,1.413,1.729,2.623,2.874,3.665c2.282,2.079,4.991,3.727,7.773,5.046c1.681,0.797,3.423,1.482,5.156,2.155
			c2.201,0.854,4.443,1.509,6.687,2.227c1.501,0.48,3.217,0.679,4.572,1.528c1.109,0.695,1.377,2.26,1.501,3.461
			c0.093,0.902,0.095,1.8,0.051,2.696c2.666,0.216,5.179,0.186,7.372-0.155C41.028,353.045,41.095,350.942,40.873,345.922z"/>
		<g>
			<g>
				<path style="fill:#BEB1E0;" d="M173.373,346.225l0.491,7.255c0,0,17.58,1.129,35.643-13.386c0.645-6.29-1.451-10.483-3.71-9.999
					C200.139,340.401,173.373,346.225,173.373,346.225z"/>
				<path style="fill:#7F73A8;" d="M174.742,353.741c-0.571,0-0.882-0.019-0.893-0.02c-0.122-0.007-0.219-0.104-0.226-0.225
					l-0.491-7.255c-0.008-0.119,0.073-0.227,0.19-0.253c0.266-0.058,26.722-5.919,32.263-16.01c0.033-0.061,0.093-0.106,0.161-0.12
					c0.656-0.142,1.317,0.063,1.909,0.593c1.715,1.538,2.538,5.333,2.094,9.668c-0.007,0.064-0.039,0.124-0.09,0.165
					c-9.367,7.526-18.598,10.779-24.692,12.183C180.077,353.593,176.363,353.741,174.742,353.741z M174.091,353.246
					c2.034,0.073,18.491,0.096,35.184-13.277c0.462-4.706-0.639-7.986-1.945-9.157c-0.443-0.397-0.904-0.565-1.377-0.498
					c-5.558,9.861-29.655,15.505-32.325,16.102L174.091,353.246z"/>
			</g>
			<path style="fill:#BEB1E0;" d="M179.757,351.678c-0.205-1.377-0.327-2.863,0.424-4.099c0.748-1.232,1.944-1.523,3.194-2.061
				c3.425-1.474,7.154-2.082,10.636-3.408c3.221-1.227,6.299-2.86,9.102-4.867c2.028-1.452,3.839-3.113,5.524-4.914
				c-0.724-1.621-1.762-2.466-2.84-2.235c-5.658,10.306-32.424,16.13-32.424,16.13l0.491,7.255c0,0,2.331,0.146,6.156-0.362
				C179.923,352.641,179.829,352.162,179.757,351.678z"/>
			<g>
				<path style="fill:#BEB1E0;" d="M161.767,280.42c-23.063-4.193-112.347-0.956-112.347-0.956
					c-0.721,0.481-13.215,4.325-22.826,8.169c-9.611,3.844-19.222,16.579-19.942,43.249c0,0,6.273,14.426,34.222,15.04
					c0.222,5.02,0.154,7.122,0.135,7.545c0,0,0.001,0,0.002,0v1.724h132.853v-1.71l-0.491-7.255c0,0,26.766-5.824,32.424-16.13
					c-3.709-24.999-5.967-31.128-11.29-37.256C189.185,286.71,176.444,283.968,161.767,280.42z"/>
				<path style="fill:#7F73A8;" d="M173.864,355.433H41.011c-0.134,0-0.243-0.109-0.243-0.242v-1.694
					c-0.002-0.013-0.002-0.026-0.002-0.04c0.016-0.365,0.086-2.407-0.125-7.298c-14.363-0.356-22.88-4.428-27.503-7.791
					c-5.057-3.68-6.644-7.24-6.709-7.39c-0.014-0.032-0.021-0.067-0.02-0.103c0.873-32.326,14.344-41.167,20.095-43.468
					c5.899-2.359,12.919-4.731,17.564-6.3c2.774-0.937,4.965-1.677,5.217-1.845c0.037-0.025,0.081-0.039,0.126-0.041
					c0.892-0.032,89.574-3.191,112.4,0.96c0.005,0.001,0.009,0.002,0.013,0.003l2.706,0.652c13.477,3.239,25.117,6.036,30.16,11.844
					c5.334,6.142,7.595,12.099,11.346,37.38c0.008,0.053-0.002,0.106-0.028,0.153c-5.448,9.924-29.701,15.605-32.38,16.205
					l0.477,7.048l0.001,1.727C174.106,355.324,173.997,355.433,173.864,355.433z M41.253,354.948h132.368v-1.468l-0.49-7.239
					c-0.008-0.119,0.073-0.227,0.19-0.253c0.265-0.058,26.599-5.89,32.223-15.939c-3.726-25.091-5.963-30.999-11.22-37.052
					c-4.942-5.69-16.512-8.47-29.908-11.69l-2.7-0.65c-22.54-4.094-109.489-1.051-112.229-0.953
					c-0.426,0.225-2.071,0.784-5.264,1.862c-4.641,1.568-11.652,3.937-17.54,6.292c-5.658,2.263-18.908,10.983-19.788,42.974
					c0.431,0.898,7.324,14.262,33.983,14.848c0.127,0.003,0.231,0.104,0.237,0.232c0.219,4.949,0.155,7.087,0.136,7.535
					c0.001,0.007,0.001,0.013,0.001,0.02V354.948z"/>
			</g>
			<path style="fill:#BEB1E0;" d="M197.203,299.648c1.801,4.763,3.055,9.773,4.081,14.754c1.038,5.032,1.798,10.116,2.382,15.22
				c0.112,0.98,0.208,1.961,0.303,2.942c0.733-0.793,1.359-1.614,1.828-2.469c-3.709-24.999-5.967-31.128-11.29-37.256
				c-0.087-0.1-0.192-0.191-0.282-0.289C195.357,294.852,196.298,297.254,197.203,299.648z"/>
			<path style="fill:#BEB1E0;" d="M9.309,331.902c0.021-4.62,0.442-9.201,1.099-13.772c0.618-4.296,1.503-8.573,3.053-12.638
				c1.543-4.048,3.769-7.759,6.399-11.189c1.247-1.626,2.57-3.193,3.885-4.764c0.256-0.306,0.51-0.614,0.764-0.922
				c-8.871,4.785-17.188,17.528-17.857,42.265c0,0,0.709,1.617,2.689,3.788C9.324,333.748,9.304,332.825,9.309,331.902z"/>
			<path style="fill:#BEB1E0;" d="M205.797,330.095c-0.142-0.957-0.281-1.876-0.419-2.779c-0.855,0.96-1.753,1.882-2.737,2.718
				c-2.387,2.029-5.138,3.604-8.143,4.511c-3.351,1.011-6.889,1.173-10.349,0.733c-0.283-0.036-0.463-0.408-0.509-0.654
				c-1.529-8.273,1.537-16.126,3.062-24.149c-2.911,4.424-5.165,9.358-8.923,13.143c-0.306,0.309-0.557-0.502-0.565-0.663
				c-0.236-4.731,0.184-9.499,1.003-14.159c0.737-4.19,1.855-8.303,3.374-12.277c1.057-2.765,2.45-6.131,5.274-7.531
				c0.562-0.279,1.148-0.423,1.741-0.48c-6.517-3.345-16.158-5.506-26.839-8.088c-23.063-4.193-112.347-0.956-112.347-0.956
				c-0.237,0.158-1.758,0.684-4.02,1.449c-0.01,0.029-0.018,0.057-0.028,0.086c-0.727,2.076-1.447,4.119-1.941,6.257
				c1.794,0.225,3.604,0.338,5.402,0.522c2.403,0.246,4.864,0.476,7.195,1.143c0.724,0.207,1.507,0.452,2.094,0.944
				c1.024,0.857,1.639,2.152,1.912,3.435c0.598,2.813-0.27,5.691,0.079,8.524c0.284,2.306,1.704,4.442,3.046,6.284
				c3.258,4.474,7.388,8.362,11.582,11.943c3.912,3.34,8.045,6.492,12.563,8.971c3.125,1.715,6.306,3.313,9.673,4.502
				c3.066,1.083,6.328,1.901,9.602,1.77c3.106-0.124,5.929-1.478,8.656-2.866c3.131-1.593,6.111-3.477,9.013-5.45
				c5.906-4.014,11.494-8.473,17.398-12.488c2.159-1.468,4.427-2.765,6.54-4.298c1.863-1.351,3.734-2.697,5.689-3.914
				c1.855-1.155,3.906-2.405,6.091-2.787c1.834-0.321,3.506,0.55,4.653,1.966c1.308,1.615,1.838,3.761,2.127,5.775
				c0.335,2.332,0.364,4.696,0.313,7.048c-0.044,2.01-0.146,3.997-0.026,6.006c0.153,2.544,0.397,5.082,0.535,7.627
				c0.249,4.621,0.282,9.762-2.172,13.867c-3.159,5.284-9.662,6.861-15.418,7.12c-7.234,0.325-14.32-1.584-21.531-1.754
				c-4.039-0.095-8.115,0.4-12.14,0.706c-4.012,0.305-8.024,0.617-12.037,0.903c-7.711,0.549-15.414,0.982-23.145,1.007
				c-6.905,0.023-13.905,0-20.714-1.282c-4.988-0.939-10.977-2.644-13.463-7.547c-1.951-3.847-0.998-8.309,0.197-12.232
				c1.198-3.93,2.948-7.783,3.687-11.844c-3.046,0.882-5.365,3.501-7.876,5.313c-0.375,0.271-0.927-0.422-0.951-0.751
				c-0.284-3.935-1.842-7.436-3.459-10.975c-0.662-1.45-1.308-2.909-1.826-4.418c-0.642-1.872-0.88-3.896-1.044-5.861
				c-0.169-2.018-0.197-4.046-0.184-6.07c0.014-2.103,0.151-4.225,0.043-6.325c-0.125-2.419-0.373-4.831-0.677-7.235
				c-1.118,0.398-2.248,0.806-3.373,1.222c-0.477,2.654-1.017,5.295-1.497,7.948c-0.967,5.348-1.708,11.02-0.466,16.383
				c1.132,4.888,3.446,9.494,3.861,14.542c0.021,0.259-0.034,0.666-0.346,0.72c-2.487,0.427-4.962-0.476-7.238-1.389
				c-1.822-0.731-3.65-1.565-5.558-2.065c3.395,2.448,6.781,4.931,9.78,7.861c1.922,1.878,6.575,6.928,2.658,9.214
				c-1.865,1.089-4.582,0.126-6.437-0.509c-2.91-0.997-5.693-2.357-8.4-3.809c-2.4-1.287-4.784-2.661-7.074-4.136
				c-1.374-0.885-2.687-1.858-3.978-2.858c-0.059,1.053-0.11,2.12-0.139,3.219c0,0,6.273,14.426,34.222,15.04
				c0.222,5.02,0.154,7.122,0.135,7.545c0,0,0.001,0,0.002,0v1.724h132.853v-1.71l-0.491-7.255
				C173.373,346.225,200.139,340.401,205.797,330.095z"/>
		</g>
		<g>
			<path style="fill:#7F73A8;" d="M48.692,322.003c-2.595,2.617-4.678,5.69-6.081,9.102c-0.694,1.688-1.239,3.446-1.603,5.234
				c-0.155,0.762-0.268,1.533-0.356,2.305c-0.018-0.22-0.032-0.44-0.051-0.66c-0.279-3.302-0.613-6.6-1.038-9.888
				c-0.413-3.204-0.914-6.396-1.526-9.568c-0.607-3.147-1.325-6.272-1.907-9.424c-0.666-3.603-1.169-7.256-1.149-10.928
				c0.001-0.165-0.283,0.081-0.288,0.192c-0.291,6.533,1.171,12.908,2.402,19.279c1.253,6.486,2.097,13.026,2.661,19.607
				c0.155,1.811,0.293,3.624,0.419,5.438c0.13,1.872,0.167,3.78,0.438,5.638c0.058,0.399,0.611-0.146,0.616-0.384
				c0.031-1.665-0.135-3.342-0.247-5.003c-0.028-0.41-0.065-0.82-0.095-1.23c0.117-0.1,0.231-0.253,0.244-0.305
				c0.188-0.817,0.203-1.688,0.287-2.52c0.09-0.889,0.213-1.771,0.381-2.648c0.329-1.713,0.802-3.393,1.439-5.018
				c1.298-3.311,3.181-6.394,5.591-9.011C48.983,322.046,48.901,321.792,48.692,322.003z"/>
		</g>
		<g>
			<path style="fill:#7F73A8;" d="M175.897,305.213c0.514-3.709,1.151-7.397,1.743-11.093c0.026-0.163-0.271,0.077-0.293,0.163
				c-1.684,6.729-2.695,13.667-3.387,20.564c-0.683,6.8-1.01,13.631-0.968,20.465c0.024,3.88,0.16,7.752,0.485,11.619
				c0.045,0.535,0.866-0.129,0.848-0.503c-0.335-6.83-0.494-13.66-0.244-20.496C174.334,319.001,174.944,312.082,175.897,305.213z"
				/>
			<path style="fill:#7F73A8;" d="M183.218,314.73c-1.355,4.689-2.8,9.352-4.251,14.013c-0.723,2.32-1.462,4.634-2.22,6.943
				c-0.746,2.273-1.555,4.536-2.153,6.853c-0.1,0.386,0.431,0.027,0.5-0.138c0.94-2.242,1.663-4.574,2.4-6.89
				c0.732-2.301,1.447-4.606,2.145-6.917c1.4-4.636,2.664-9.311,3.884-13.998C183.581,314.369,183.252,314.611,183.218,314.73z"/>
		</g>
		<g>
			<path style="fill:#FDD4B5;" d="M80.977,231.414c0,0,0,3.685,0,9.921c0,6.236,0.472,22.795-24.043,34.622
				c0,0,7.312,44.084,47.524,51.825c16.343,1.72,46.449-29.461,51.18-50.535c-14.193-6.021-31.181-9.892-26.88-45.374
				L80.977,231.414z"/>
			<path style="fill:#B4715A;" d="M105.773,328.092c-0.459,0-0.905-0.023-1.34-0.068c-20.883-4.019-32.748-17.954-39.027-28.936
				c-6.798-11.889-8.693-22.98-8.712-23.091c-0.017-0.106,0.037-0.211,0.134-0.259c23.937-11.548,23.916-27.321,23.906-34.056
				v-10.268c0-0.064,0.026-0.127,0.072-0.172c0.045-0.044,0.107-0.07,0.171-0.07c0.001,0,0.002,0,0.002,0l47.781,0.459
				c0.069,0.001,0.135,0.03,0.18,0.082c0.045,0.052,0.067,0.121,0.059,0.189c-3.954,32.619,9.993,38.292,23.48,43.779
				c1.094,0.444,2.183,0.888,3.255,1.342c0.108,0.046,0.168,0.162,0.142,0.277c-2.239,9.974-10.401,22.976-21.3,33.933
				C123.963,321.903,113.338,328.092,105.773,328.092z M57.204,276.096c0.273,1.469,2.342,11.772,8.631,22.765
				c6.228,10.889,17.993,24.704,38.669,28.684c16.651,1.755,46.174-29.952,50.853-50.153c-1.01-0.426-2.034-0.842-3.062-1.261
				c-13.619-5.54-27.699-11.27-23.811-44.018l-47.266-0.455v10.023C81.228,247.907,81.251,264.419,57.204,276.096z"/>
		</g>
		<path style="fill:#FDD4B5;" d="M64.72,275.765c4.461-2.912,8.612-6.383,11.842-10.647c1.629-2.151,2.998-4.5,4.064-6.979
			c1.2-2.79,1.856-5.713,2.211-8.723c0.409-3.468,0.454-6.971,0.291-10.457c-0.117-2.506-0.307-5.028-0.598-7.53l-1.552-0.015
			c0,0,0,3.685,0,9.921c0,6.236,0.472,22.795-24.043,34.622c0,0,0.241,1.443,0.868,3.844
			C60.162,278.553,62.48,277.227,64.72,275.765z"/>
		<path style="fill:#FDD4B5;" d="M128.758,231.874l-47.781-0.459c0,0,0,3.685,0,9.921c0,0.343,0.001,0.723,0,1.126
			c0.913,1.111,1.888,2.169,2.925,3.16c5.476,5.233,12.678,9.121,20.258,10.016c3.658,0.432,7.411,0.14,10.886-1.12
			c3.781-1.371,6.996-3.84,9.523-6.945c0.204-0.251,0.432,0.003,0.432,0.236c-0.007,5.639,0.126,11.276,0.015,16.914
			c-0.101,5.147-0.34,10.332-1.217,15.414c-0.369,2.137-0.952,4.167-1.645,6.219c-0.346,1.023-0.673,2.271-1.461,3.061
			c-0.618,0.619-1.527,0.731-2.35,0.859c-1.878,0.292-3.71,0.618-5.521,1.205c-0.572,0.186-1.154,0.349-1.741,0.501
			c3.693-0.649,7.415-1.147,11.152-1.415c4.875-0.351,10.028-0.509,14.795,0.754c0.386,0.102,0.205,0.764,0.049,0.98
			c-0.327,0.452-0.659,0.901-0.995,1.346c-3.35,4.436-7.047,8.642-11.043,12.508c-4.154,4.019-8.702,7.827-13.881,10.458
			c-2.171,1.103-4.491,1.988-6.912,2.336c-2.194,0.315-4.406-0.056-6.479-0.793c-4.915-1.747-9.175-5.372-12.303-9.484
			c-2.971-3.906-5.247-8.714-4.985-13.722c0.008-0.153,0.117-0.441,0.309-0.441c3.622-0.002,7.244-0.004,10.866-0.006
			c-4.341-1.559-9.146-1.682-13.656-2.48c-1.232-0.218-2.423-0.546-3.636-0.839c-1.076-0.26-2.163-0.454-3.234-0.743
			c-1.932-0.522-3.825-1.187-5.646-2.017c-2.23-1.017-4.313-2.302-6.246-3.789c4.411,13.25,16.317,37.589,45.22,43.153
			c16.343,1.72,46.449-29.461,51.18-50.535C141.446,271.227,124.457,267.356,128.758,231.874z"/>
		<g>
			<g>
				<path style="fill:#BEB1E0;" d="M152.053,269.257c-3.378-0.438-6.839,0.134-9.102,2.184c2.258,1.613,10.43,4.731,10.43,4.731
					S154.252,272.45,152.053,269.257z"/>
				<path style="fill:#7F73A8;" d="M153.381,276.415c-0.029,0-0.059-0.006-0.086-0.016c-0.335-0.128-8.227-3.148-10.485-4.761
					c-0.06-0.043-0.097-0.11-0.101-0.183c-0.004-0.074,0.026-0.145,0.08-0.194c2.118-1.918,5.505-2.738,9.296-2.245
					c0.068,0.008,0.13,0.046,0.169,0.103c2.235,3.244,1.401,6.952,1.364,7.108c-0.016,0.068-0.061,0.126-0.122,0.159
					C153.46,276.406,153.42,276.415,153.381,276.415z M143.348,271.418c2.242,1.444,8.468,3.889,9.847,4.424
					c0.141-0.896,0.423-3.806-1.282-6.358C148.447,269.059,145.353,269.759,143.348,271.418z"/>
			</g>
			<path style="fill:#BEB1E0;" d="M152.053,269.257c-3.378-0.438-6.839,0.134-9.102,2.184c2.258,1.613,10.43,4.731,10.43,4.731
				S154.252,272.45,152.053,269.257z"/>
			<g>
				<g>
					<path style="fill:#BEB1E0;" d="M161.928,274.936c-1.359-2.898-5.549-5.118-9.876-5.679c2.199,3.193,1.328,6.915,1.328,6.915
						s0.806,2.796-5.967,16.827c-12.257,22.096-33.224,30.966-38.063,32.418c-4.839,1.452-7.258,1.29-19.999-5.322
						c-17.58-10.161-28.547-31.289-29.837-45.482c0,0-0.073-3.392,3.187-5.824c-5.175-0.137-13.397,2.256-17.219,17.436
						c12.419,1.613,16.612,4.677,16.612,4.677s-0.323,5.161,0.161,7.58c11.29,13.225,15.322,25.644,43.546,31.45
						c26.45-8.225,44.998-32.418,44.998-32.418l0.323-5.967c4.193-4.355,14.193-1.935,14.193-1.935S164.348,280.097,161.928,274.936
						z"/>
					<path style="fill:#7F73A8;" d="M105.803,330.176c-0.016,0-0.033-0.002-0.049-0.005c-23.086-4.749-29.98-13.815-37.965-24.312
						c-1.785-2.347-3.631-4.774-5.718-7.219c-0.027-0.031-0.045-0.069-0.053-0.11c-0.446-2.227-0.223-6.645-0.173-7.503
						c-0.73-0.469-5.256-3.115-16.393-4.56c-0.068-0.009-0.13-0.047-0.17-0.104c-0.039-0.057-0.051-0.129-0.034-0.195
						c1.689-6.71,6.228-17.904,17.46-17.62c0.103,0.003,0.193,0.071,0.225,0.17c0.031,0.099-0.004,0.206-0.086,0.267
						c-3.123,2.33-3.09,5.592-3.089,5.625c1.325,14.571,12.803,35.502,29.716,45.276c13.064,6.78,15.291,6.655,19.807,5.301
						c0.241-0.072,24.152-7.483,37.921-32.303c6.573-13.618,5.953-16.619,5.946-16.647c-0.01-0.037-0.01-0.081-0.002-0.117
						c0.008-0.036,0.818-3.66-1.292-6.724c-0.054-0.079-0.057-0.182-0.007-0.263c0.049-0.082,0.147-0.122,0.238-0.115
						c4.6,0.598,8.738,2.989,10.064,5.816l0,0c2.409,5.14,3.399,14.66,3.409,14.756c0.008,0.079-0.023,0.155-0.082,0.207
						c-0.059,0.052-0.138,0.074-0.216,0.053c-0.1-0.024-9.812-2.313-13.899,1.804l-0.317,5.877c-0.003,0.048-0.02,0.096-0.05,0.134
						c-0.186,0.243-18.898,24.348-45.117,32.501C105.851,330.172,105.827,330.176,105.803,330.176z M62.481,298.374
						c2.079,2.438,3.916,4.855,5.694,7.192c7.917,10.41,14.757,19.402,37.615,24.117c25.414-7.93,43.729-30.924,44.772-32.256
						l0.318-5.892c0.004-0.058,0.027-0.113,0.068-0.155c3.854-4.001,12.273-2.466,14.089-2.078
						c-0.199-1.733-1.21-9.741-3.329-14.262l0,0c-1.21-2.58-4.933-4.785-9.164-5.466c1.766,2.957,1.182,6.14,1.084,6.602
						c0.084,0.517,0.263,3.963-5.996,16.93c-13.871,25.003-37.97,32.472-38.212,32.544c-5.001,1.501-7.635,1.171-20.18-5.34
						c-17.701-10.229-28.648-31.166-29.967-45.674c-0.004-0.151-0.034-3.184,2.746-5.607c-10.285,0.168-14.566,10.538-16.234,16.993
						c12.129,1.61,16.281,4.56,16.453,4.685c0.067,0.049,0.104,0.129,0.098,0.211C62.333,290.969,62.027,295.989,62.481,298.374z"/>
				</g>
				<path style="fill:#BEB1E0;" d="M109.865,326.988c1.428-1.258,3.252-1.977,5.009-2.642c1.593-0.603,3.221-1.116,4.8-1.755
					c2.033-0.823,3.753-2.136,5.478-3.476c2.475-1.921,4.731-4.062,7.063-6.146c2.073-1.853,4.316-3.501,6.422-5.316
					c1.121-0.966,2.199-1.984,3.184-3.09c0.903-1.013,1.712-2.108,2.563-3.164c1.36-1.688,2.763-3.363,4.356-4.838
					c0.696-0.644,1.439-1.218,2.206-1.749l0.176-3.264c2.837-2.946,8.329-2.791,11.587-2.383c-2.433-1.481-5.022-2.75-7.864-3.101
					c-0.421-0.052-0.927-0.553-0.811-1.003c1.139-4.392,2.209-8.838,2.742-13.351c0.02-0.168,0.187-0.37,0.373-0.249
					c1.436,0.939,2.872,1.859,4.338,2.712c-1.68-2.519-5.497-4.406-9.435-4.917c2.199,3.193,1.328,6.915,1.328,6.915
					s0.806,2.796-5.967,16.827c-12.257,22.096-33.224,30.966-38.063,32.418c-4.839,1.452-7.258,1.29-19.999-5.322
					c-17.58-10.161-28.547-31.289-29.837-45.482c0,0-0.073-3.392,3.187-5.824c-1.336-0.035-2.875,0.101-4.489,0.579
					c-0.137,2.567-0.428,5.13-0.475,7.701c-0.053,2.919,0.406,5.717,1.651,8.377c0.068,0.146,0.148,0.514-0.051,0.611
					c-1.476,0.72-2.987,1.355-4.509,1.965c5.282,1.43,7.267,2.88,7.267,2.88s-0.289,4.642,0.095,7.184
					c0.505-0.812,1.038-1.607,1.599-2.378c0.098-0.135,0.526-0.401,0.661-0.173c2.307,3.88,4.966,7.516,7.954,10.9
					c2.753,3.118,5.714,6.067,8.754,8.906c1.472,1.223,2.945,2.446,4.417,3.668c0.051,0.036,0.102,0.073,0.153,0.109
					c0.102,0.072,0.204,0.143,0.307,0.215c0.153,0.106,0.307,0.21,0.462,0.314c0.357,0.239,0.718,0.472,1.083,0.699
					c0.72,0.448,1.455,0.872,2.201,1.275c2.169,1.171,4.438,2.151,6.732,3.047c1.67,0.652,3.351,1.346,5.084,1.811
					c1.513,0.406,3.22,0.701,4.415,1.791c0.404,0.369,0.73,0.8,1.025,1.252c0.418-0.139,0.828-0.292,1.241-0.439
					C108.648,328.286,109.218,327.558,109.865,326.988z"/>
				<g>
					<path style="fill:#BEB1E0;" d="M59.514,274.613c4.355-2.097,7.742-5,7.742-5s-1.867-0.753-4.555-0.824
						C59.442,271.221,59.514,274.613,59.514,274.613z"/>
					<path style="fill:#7F73A8;" d="M59.514,274.856c-0.044,0-0.088-0.012-0.127-0.036c-0.07-0.043-0.114-0.118-0.116-0.201
						c-0.003-0.144-0.037-3.546,3.284-6.024c0.044-0.032,0.105-0.046,0.152-0.048c2.7,0.071,4.561,0.81,4.639,0.842
						c0.079,0.031,0.135,0.101,0.149,0.186c0.013,0.083-0.018,0.168-0.082,0.223c-0.034,0.029-3.461,2.948-7.794,5.035
						C59.586,274.849,59.55,274.856,59.514,274.856z M62.779,269.035c-2.415,1.838-2.901,4.243-2.997,5.178
						c3.336-1.663,6.07-3.772,6.987-4.512C66.1,269.487,64.639,269.094,62.779,269.035z"/>
				</g>
				<path style="fill:#BEB1E0;" d="M59.514,274.613c4.355-2.097,7.742-5,7.742-5s-1.867-0.753-4.555-0.824
					C59.442,271.221,59.514,274.613,59.514,274.613z"/>
			</g>
		</g>
	</g>
	<g>
		<g>
			<g>
				<path style="fill:#8E5B3A;" d="M157.45,35.237c0,0-2.199-19.236,21.068-27.48c18.687-6.046,34.107,2.193,37.547,7.784
					c15.483-0.215,30.321,21.289,24.085,44.514c18.494,24.3,25.805,65.696-7.419,98.92c-18.386,16.128-21.612,29.676-15.483,32.902
					c6.129,3.226,23.225,4.193,25.483,25.16c2.258,20.967-18.386,31.289-35.805,30.966c-11.29,0-11.612,8.709-2.58,9.677
					s20.322,1.935,19.999,13.225c-0.322,11.29-12.257,16.128-17.419,9.354c12.258-0.645,12.258-8.387,10.967-12.902
					c-1.29-4.516-7.251-6.201-18.709-4.516c-10.967,1.613-20.322-8.064-19.354-18.064s10.735-11.788,17.419-10.322
					c7.396,1.622,23.357-0.641,23.225-11.29c-0.125-10.039-9.487-8.529-17.64-10.341c-7.878-1.751-15.261-5.464-17.519-15.464
					c-0.323,0.968,5.161,11.612-0.323,19.999c-5.484,8.387-12.903,15.161-13.548,21.612c0.323-8.709,1.935-10,6.451-15.483
					c4.516-5.484,10.322-14.193,3.871-26.45c-6.451-12.257-10.103-16.982-5.484-35.805
					C180.583,143.706,174.744,68.266,157.45,35.237z"/>
				<path style="fill:#62351D;" d="M213.236,283.603c-2.568,0-4.918-1.118-6.503-3.198c-0.054-0.071-0.064-0.167-0.027-0.249
					c0.038-0.081,0.118-0.135,0.208-0.14c4.799-0.252,8.12-1.623,9.869-4.074c2.058-2.883,1.432-6.575,0.877-8.52
					c-1.283-4.491-7.484-5.952-18.44-4.342c-5.157,0.762-10.355-0.935-14.256-4.647c-3.84-3.655-5.849-8.768-5.375-13.68
					c0.353-3.651,1.87-6.475,4.507-8.395c3.92-2.854,9.39-2.976,13.206-2.141c4.7,1.031,14.119,0.551,19.403-3.754
					c2.377-1.936,3.563-4.39,3.527-7.296c-0.096-7.677-5.669-8.406-12.123-9.25c-1.754-0.229-3.569-0.467-5.327-0.857
					c-5.288-1.176-12.211-3.542-15.87-10.555c0.957,4.087,1.566,9.965-1.717,14.985c-1.807,2.764-3.803,5.327-5.735,7.806
					c-3.943,5.063-7.348,9.436-7.774,13.697c-0.013,0.131-0.147,0.236-0.258,0.218c-0.131-0.008-0.231-0.119-0.226-0.25
					c0.302-8.161,1.736-9.887,5.57-14.498c0.297-0.358,0.609-0.733,0.936-1.131c5.006-6.079,9.967-14.549,3.843-26.183
					c-0.461-0.877-0.909-1.716-1.34-2.525c-5.642-10.577-8.474-15.886-4.163-33.449c2.227-9.075,1.683-32.554-1.323-57.097
					c-4.914-40.124-13.067-60.283-17.489-68.729c-0.013-0.026-0.023-0.055-0.026-0.085c-0.023-0.194-1.951-19.523,21.229-27.736
					c18.197-5.888,33.923,1.762,37.761,7.768c0.031,0,0.063,0,0.095,0c6.337,0,12.763,3.596,17.665,9.898
					c7.334,9.426,9.744,22.43,6.457,34.808c9.967,13.142,15.674,29.96,15.662,46.166c-0.015,19.512-8.029,37.832-23.175,52.978
					c-14.388,12.622-18.826,22.9-18.186,28.313c0.232,1.961,1.146,3.415,2.644,4.203c1.164,0.612,2.73,1.143,4.543,1.757
					c7.657,2.593,19.228,6.51,21.068,23.593c0.816,7.582-1.357,14.437-6.286,19.824c-6.636,7.254-18.026,11.61-29.765,11.41
					c-5.807,0-8.581,2.37-8.699,4.572c-0.101,1.897,1.78,4.153,6.149,4.62l0.556,0.06c8.902,0.949,19.983,2.131,19.66,13.414
					c-0.202,7.085-4.663,11.011-8.42,12.22C215.179,283.449,214.192,283.603,213.236,283.603z M207.41,280.471
					c2.088,2.449,5.273,3.267,8.608,2.198c3.607-1.161,7.889-4.94,8.084-11.772c0.31-10.835-10.522-11.99-19.227-12.919
					l-0.555-0.059c-4.683-0.502-6.694-3.01-6.582-5.128c0.134-2.505,3.027-5.032,9.188-5.032
					c11.595,0.191,22.856-4.098,29.403-11.253c4.9-5.356,6.974-11.899,6.16-19.446c-1.807-16.773-13.2-20.631-20.74-23.184
					c-1.833-0.62-3.416-1.157-4.613-1.787c-1.645-0.866-2.649-2.448-2.9-4.575c-0.656-5.536,3.818-15.988,18.335-28.724
					c15.042-15.042,23.006-33.243,23.021-52.624c0.012-16.14-5.687-32.894-15.636-45.966c-0.046-0.06-0.061-0.137-0.041-0.21
					c3.294-12.266,0.923-25.163-6.341-34.499c-4.867-6.257-11.257-9.792-17.506-9.71c-0.002,0-0.003,0-0.004,0
					c-0.084,0-0.162-0.043-0.207-0.115c-3.636-5.907-19.198-13.525-37.265-7.68c-22.285,7.896-20.999,26.159-20.907,27.179
					c4.443,8.499,12.603,28.719,17.519,68.852c3.012,24.595,3.553,48.145,1.314,57.271c-4.267,17.384-1.464,22.638,4.12,33.106
					c0.431,0.81,0.879,1.649,1.342,2.528c6.257,11.887,1.203,20.523-3.898,26.718c-0.328,0.398-0.64,0.774-0.939,1.132
					c-3.264,3.928-4.753,5.719-5.281,11.37c1.262-3.501,4.069-7.105,7.214-11.144c1.925-2.471,3.915-5.027,5.712-7.774
					c4.231-6.472,1.868-14.205,0.732-17.921c-0.379-1.236-0.529-1.749-0.438-2.021c0.034-0.103,0.118-0.167,0.243-0.166
					c0.108,0.006,0.2,0.083,0.224,0.189c2.435,10.785,11.06,13.886,17.336,15.28c1.736,0.387,3.54,0.622,5.285,0.85
					c6.399,0.837,12.444,1.627,12.545,9.726c0.038,3.061-1.209,5.644-3.706,7.678c-5.409,4.407-15.025,4.903-19.813,3.852
					c-3.708-0.814-9.024-0.699-12.816,2.059c-2.521,1.834-3.971,4.542-4.31,8.05c-0.461,4.764,1.493,9.728,5.226,13.282
					c3.791,3.609,8.843,5.255,13.852,4.518c11.226-1.654,17.615-0.076,18.977,4.689c0.58,2.028,1.227,5.886-0.949,8.935
					C215.396,278.718,212.112,280.147,207.41,280.471z"/>
			</g>
			<g>
				<path style="fill:#8E5B3A;" d="M232.731,158.974c12.759-12.759,19.535-26.723,22-40.462c-0.018-0.025-0.037-0.052-0.055-0.077
					c-3.42,14.741-10.26,21.346-8.491,16.156c1.769-5.189,2.674-17.551,2.674-17.551c-0.645,4.516-4.516,19.031-11.29,25.483
					c5.161-10.967,7.59-24.601,7.59-24.601c-2.409,13.14-14.687,32.02-22.106,35.568c20.322-30.966,22.579-60.32,11.935-79.351
					c8.064,19.999,0.968,60.32-14.515,66.448c10.967-13.548,8.387-39.03,8.387-39.03s-0.968,9.677-6.774,14.838
					c17.418-66.448-33.224-72.9-33.224-72.9c18.709-2.581,33.224,13.225,33.224,13.225s-4.839-10.322-23.547-19.354
					c44.277,5.313,55.327,53.026,56.885,61.091c-1.551-14.601-7.397-28.054-15.274-38.404c0.367-1.367,0.655-2.728,0.88-4.079
					c-20.464-25.061-40.678-27.167-40.678-27.167c8.327-2.831,22.984,4.83,25.815,7.661c-10.992-16.988-38.972-20.652-50.964-9.16
					c1.665-7.661,9.327-15.156,25.982-14.823c-4.663-2.332-20.152-2.998-27.98,3.497c1.14-4.38,5.008-7.35,9.508-9.356
					c-1.378,0.302-2.776,0.669-4.195,1.129c-23.267,8.244-21.068,27.48-21.068,27.48c17.294,33.03,23.133,108.469,18.833,125.995
					c-4.619,18.822-0.968,23.547,5.484,35.805c6.451,12.257,0.645,20.967-3.871,26.45c-4.516,5.484-6.129,6.774-6.451,15.483
					c0.645-6.451,8.064-13.225,13.548-21.612c5.484-8.387,0-19.031,0.323-19.999c2.258,9.999,9.641,13.713,17.519,15.464
					c8.154,1.812,17.516,0.302,17.64,10.341c0.132,10.649-15.828,12.912-23.225,11.29c-6.684-1.466-16.451,0.323-17.419,10.322
					s8.387,19.676,19.354,18.064c11.458-1.685,17.419,0,18.709,4.516c1.29,4.516,1.29,12.257-10.967,12.903
					c1.39,1.824,3.272,2.799,5.285,3.04c4.597-2.598,9.109-6.836,9.39-12.406c0.156-3.077-1.133-5.94-2.495-8.619
					c-0.247-0.486-0.57-1.044-0.765-1.616c-3.97-1.966-9.288-2.474-13.995-2.978c-9.032-0.968-8.709-9.677,2.58-9.677
					c1.583,0.029,3.192-0.032,4.808-0.178c-0.314-0.049-0.62-0.091-0.937-0.144c18.386-5.806,18.386-9.354,23.225-17.096
					c-8.709,9.999-20.322,6.774-20.322,6.774c16.773-3.548,21.289-17.741,17.203-27.633c-4.086-9.892-14.408-9.677-18.064-13.333
					c1.29,4.516,7.459,7.861,7.459,7.861c-4.675,0.988-11.76-4.313-14.018-8.507c-6.451-10.322,5.161-21.289,5.161-21.289
					s-3.548,9.677-0.104,19.015c-1.717-8.403,2.039-19.66,11.393-25.144c-0.27,0.612-0.512,1.195-0.741,1.766
					C224.744,166.609,228.292,162.868,232.731,158.974z"/>
			</g>
			<g>
				<path style="fill:#8E5B3A;" d="M226.197,224.261c3.456-8.641-3.744-15.266-21.026-19.586
					c-17.282-4.32-16.418-19.586-13.25-25.861c-1.729,6.398,3.457,15.78,10.658,19.524c-4.896-8.065-0.288-16.994,7.777-25.923
					c8.065-8.929,6.337-25.347,6.337-25.347c10.657-25.923-22.178-37.732-21.314-40.612c5.473-21.602-0.864-36.004-0.864-36.004
					c12.961,9.505,8.641,30.531,8.641,30.531c2.592-7.489,6.337-31.107-6.913-44.069c20.45,8.641,21.89,29.667,21.89,29.667
					c2.304-39.748-37.732-42.341-37.732-42.341s7.777-4.32,18.146-3.744c-9.793-7.489-19.01-4.032-19.01-4.032
					c4.897-9.505,18.434-11.521,18.434-11.521c-18.146-0.576-25.635,11.233-25.635,11.233c-3.456-14.978,8.353-21.89,8.353-21.89
					s-13.537,6.049-14.978,12.961c-1.189-4.926-0.895-8.918,0.126-12.109c-9.647,8.959-8.386,20.097-8.386,20.097
					c17.294,33.03,23.133,108.469,18.833,125.995c-4.619,18.822-0.968,23.547,5.484,35.805c6.451,12.257,0.645,20.967-3.871,26.45
					c-4.516,5.484-6.129,6.774-6.451,15.483c0.645-6.451,8.064-13.225,13.548-21.612c5.484-8.387,0-19.031,0.323-19.999
					c2.258,9.999,9.641,13.713,17.519,15.464c8.154,1.812,17.516,0.302,17.64,10.341c0.082,6.579-5.981,9.955-12.37,11.193
					C215.273,233.384,223.484,231.044,226.197,224.261z"/>
			</g>
			<g>
				<path style="fill:#62351D;" d="M240.541,60.183c-3.876-6.1-8.68-11.553-14.215-16.2c-2.781-2.335-5.741-4.455-8.85-6.333
					c-3.212-1.94-6.638-3.61-10.256-4.64c-4.01-1.142-8.287-1.47-12.339-0.348c-0.176,0.049-0.48,0.571-0.22,0.506
					c7.384-1.833,14.914,0.848,21.263,4.562c6.149,3.598,11.759,8.197,16.576,13.44c2.732,2.973,5.24,6.16,7.47,9.527
					C240.149,60.966,240.683,60.406,240.541,60.183z"/>
				<path style="fill:#62351D;" d="M223.584,34.548c-4.877-4.93-11.415-8.034-18.267-8.986c-6.696-0.931-13.593,0.332-19.579,3.46
					c-3.362,1.756-6.439,4.084-8.984,6.899c-0.206,0.227-0.025,0.377,0.185,0.161c4.657-4.785,10.695-8.143,17.253-9.457
					c6.536-1.309,13.371-0.492,19.461,2.198c3.474,1.535,6.703,3.652,9.508,6.211C223.325,35.184,223.745,34.711,223.584,34.548z"/>
				<path style="fill:#62351D;" d="M217.252,77.984c-2.01-8.973-7.806-16.932-15.498-21.919c-4.326-2.804-9.181-4.65-14.304-5.277
					c-0.124-0.015-0.352,0.302-0.216,0.325c8.807,1.507,16.913,6.473,22.465,13.443c2.789,3.502,4.943,7.53,6.211,11.828
					c1.599,5.42,1.779,11.187,1.108,16.771c-0.786,6.533-2.69,12.896-4.88,19.081c-0.177,0.501,0.436,0.227,0.547-0.067
					C216.755,101.389,219.831,89.497,217.252,77.984z"/>
				<path style="fill:#62351D;" d="M237.403,77.246c-1.803-6.237-4.423-12.195-7.743-17.772c-0.102-0.172-0.461,0.191-0.382,0.336
					c5.426,9.966,9.037,21.059,9.847,32.408c0.403,5.641,0.098,11.331-1.013,16.879c-1.164,5.814-3.227,11.402-5.737,16.762
					c-2.847,6.079-6.261,11.866-9.527,17.724c-0.329,0.589,0.32,0.578,0.583,0.152c6.31-10.2,12.428-20.938,15.198-32.714
					C241.244,99.907,240.561,88.173,237.403,77.246z"/>
				<path style="fill:#62351D;" d="M246.859,91.002c-0.59-5.019-1.705-9.957-3.337-14.74c-0.048-0.14-0.356,0.146-0.314,0.279
					c2.701,8.549,3.833,17.586,3.424,26.539c-0.41,8.954-2.378,17.846-5.811,26.126c-1.92,4.63-4.304,9.052-7.103,13.209
					c-0.3,0.446,0.226,0.415,0.443,0.104c5.171-7.414,8.853-15.824,10.999-24.596C247.306,109.155,247.914,99.97,246.859,91.002z"/>
				<path style="fill:#62351D;" d="M249.296,89.808c-0.021-0.134-0.346,0.144-0.325,0.288c1.757,12.45,0.419,25.358-3.848,37.184
					c-1.174,3.255-2.565,6.436-4.116,9.529c-0.202,0.403,0.337,0.146,0.452-0.063c6.033-11.017,8.964-23.83,8.769-36.364
					C250.173,96.835,249.853,93.31,249.296,89.808z"/>
				<path style="fill:#62351D;" d="M204.808,82.057c-1.315-6.611-4.529-12.796-9.123-17.725c-2.52-2.705-5.446-5.08-8.702-6.843
					c-0.132-0.071-0.404,0.258-0.288,0.332c5.467,3.477,10.098,8.082,13.319,13.73c3.466,6.077,5.109,13.056,4.812,20.04
					c-0.177,4.172-1.042,8.323-2.584,12.204c-0.146,0.369,0.312,0.145,0.397-0.06C205.493,96.898,206.254,89.325,204.808,82.057z"/>
				<path style="fill:#62351D;" d="M202.567,80.534c-0.554-1.964-1.379-3.849-2.431-5.597c-0.075-0.125-0.345,0.15-0.286,0.255
					c2.217,3.979,3.163,8.561,3.268,13.085c0.119,5.094-0.818,10.117-1.66,15.119c-0.066,0.39,0.462,0.008,0.507-0.205
					C203.554,95.81,204.655,87.934,202.567,80.534z"/>
				<path style="fill:#62351D;" d="M220.696,203.639c-4.272-2.027-7.574-5.828-9.357-10.167c-1.997-4.86-1.981-10.29-0.544-15.299
					c0.876-3.054,2.233-5.933,3.965-8.593c0.154-0.236-0.109-0.201-0.215-0.04c-3.122,4.712-5.238,10.199-5.372,15.895
					c-0.118,4.997,1.44,10.014,4.608,13.913c1.753,2.158,3.95,3.836,6.519,4.905C220.528,204.348,220.974,203.771,220.696,203.639z"
					/>
				<path style="fill:#62351D;" d="M231.685,211.628c-1.232-3.777-3.819-6.962-7.004-9.288c-1.776-1.296-3.737-2.329-5.786-3.12
					c-0.133-0.051-0.41,0.309-0.248,0.375c7.148,2.893,13.018,9.336,13.149,17.342c0.037,2.288-0.43,4.56-1.435,6.619
					c-0.082,0.167-0.042,0.328,0.149,0.347c0.202,0.021,0.406-0.267,0.479-0.415C232.815,219.808,232.952,215.51,231.685,211.628z"
					/>
				<path style="fill:#62351D;" d="M222.875,205.79c-5.633-0.681-10.776-4.527-12.798-9.859c-0.055-0.146-0.375,0.152-0.326,0.288
					c1.982,5.424,7.052,9.497,12.832,10.015C222.759,206.249,223.062,205.813,222.875,205.79z"/>
				<path style="fill:#62351D;" d="M205.122,242.644c-3.833,0.026-7.001,2.768-8.068,6.374c-0.961,3.251-0.219,7.842,3.381,9.114
					c0.245,0.087,0.706-0.51,0.412-0.639c-3.015-1.324-3.903-5.201-3.268-8.151c0.748-3.477,3.721-6.169,7.333-6.248
					C205.081,243.09,205.375,242.642,205.122,242.644z"/>
				<path style="fill:#62351D;" d="M198.47,260.657c-3.947-0.253-7.999-1.621-10.766-4.552c-2.64-2.797-3.92-7.023-2.632-10.73
					c0.073-0.209-0.248-0.01-0.287,0.091c-1.143,2.92-0.816,6.173,0.638,8.927c1.501,2.843,4.19,4.876,7.178,5.959
					c1.781,0.646,3.626,0.935,5.516,0.952C198.349,261.307,198.743,260.675,198.47,260.657z"/>
				<path style="fill:#62351D;" d="M203.047,13.257c-10.84-3.402-23.82-0.18-31.14,8.679c-1.9,2.299-3.531,4.963-4.056,7.935
					c-0.024,0.138,0.24-0.064,0.259-0.146c0.609-2.702,2.164-5.197,3.916-7.311c1.604-1.935,3.499-3.625,5.594-5.011
					c4.504-2.98,9.798-4.486,15.174-4.689c3.356-0.127,6.681,0.326,9.966,0.98C202.922,13.726,203.245,13.319,203.047,13.257z"/>
				<path style="fill:#62351D;" d="M215.241,203.792c-5.765-1.87-11.384-4.666-15.774-8.913c-4.381-4.238-7.27-9.926-7.547-16.065
					c-0.152-3.363,0.527-6.733,2.18-9.682c0.107-0.19-0.151-0.102-0.213,0.005c-3.069,5.308-3.12,11.792-0.994,17.452
					c2.209,5.881,6.83,10.532,12.17,13.692c3.065,1.814,6.351,3.164,9.773,4.139C215.085,204.489,215.533,203.887,215.241,203.792z"
					/>
			</g>
			<path style="fill:#62351D;" d="M204.668,18.013c0,0,25.16-0.968,33.224,29.353C238.215,31.238,226.603,13.175,204.668,18.013z"/>
			<path style="fill:#62351D;" d="M209.699,50.868c0,0,23.14,11.981,16.689,51.979c0,0,5.376-8.172,2.581-26.45
				c8.387,11.827,3.656,40.428,0.645,49.89C243.161,106.288,240.319,61.037,209.699,50.868z"/>
			<path style="fill:#62351D;" d="M232.194,61.344c0,0,18.279,25.375,7.311,63.868C248.322,108.009,249.182,76.182,232.194,61.344z"
				/>
			<path style="fill:#62351D;" d="M248.851,83.828c0,0,5.826,17.712,0.699,42.649C256.309,113.66,254.911,91.053,248.851,83.828z"/>
			<g>
				<path style="fill:#8E5B3A;" d="M184.992,247.034c-0.645-12.903,15.806-11.612,15.806-11.612l0.231-0.519
					c-1.394-0.055-2.682-0.208-3.779-0.448c-6.684-1.466-16.451,0.323-17.419,10.322s8.387,19.676,19.354,18.064
					c2.078-0.306,3.971-0.497,5.692-0.584c0.04-0.129,0.072-0.253,0.114-0.384C197.249,262.195,185.736,261.909,184.992,247.034z"/>
			</g>
			<path style="fill:#62351D;" d="M226.187,197.065c0,0,20.813,17.129-1.473,37.389c0,0,10.498-1.842,12.893-14.735
				c1.289,6.815-1.658,13.998-4.789,17.497c10.314-6.078,10.146-20.836,6.999-28.18
				C235.396,198.723,226.187,197.065,226.187,197.065z"/>
		</g>
		<g>
			<g>
				<path style="fill:#CCBDB4;" d="M185.716,73.092c0,0,4.789-1.061,0.889-12.5c-4.838-14.193-27.228-37.967-33.921-29.43
					C152.684,31.162,176.423,44.88,185.716,73.092z"/>
				<path style="fill:#A0887B;" d="M185.716,73.335c-0.103,0-0.197-0.065-0.23-0.167c-9.155-27.796-32.686-41.659-32.923-41.796
					c-0.061-0.035-0.103-0.095-0.117-0.164c-0.013-0.069,0.004-0.14,0.047-0.196c1.23-1.571,3.013-2.174,5.306-1.782
					c9.414,1.598,25.096,19.728,29.035,31.283c2.207,6.473,1.634,9.675,0.765,11.221c-0.755,1.343-1.788,1.585-1.831,1.595
					C185.751,73.333,185.733,73.335,185.716,73.335z M153.05,31.1c2.544,1.56,24.059,15.394,32.818,41.681
					c0.298-0.133,0.861-0.477,1.32-1.307c0.81-1.464,1.326-4.526-0.814-10.804c-1.877-5.505-6.622-12.874-12.384-19.232
					c-6.014-6.636-12.098-11.021-16.274-11.73C155.723,29.368,154.157,29.838,153.05,31.1z"/>
			</g>
			<path style="fill:#CCBDB4;" d="M162.716,32.939c0,0,16.768,13.258,23.3,29.832C185.919,55.557,173.733,38.691,162.716,32.939z"/>
		</g>
	</g>
	<g>
		<path style="fill:#8E5B3A;" d="M170.944,132.425l-0.341,24.434c0,0,16.324-5.948,16.163-16.109S170.944,132.425,170.944,132.425z"
			/>
		<path style="fill:#62351D;" d="M170.603,157.101c-0.049,0-0.099-0.015-0.14-0.045c-0.065-0.046-0.103-0.121-0.102-0.201
			l0.341-24.434c0.002-0.122,0.094-0.223,0.214-0.238c0.372-0.043,9.115-1.018,13.582,2.891c1.629,1.427,2.474,3.334,2.511,5.67
			c0.067,4.24-2.743,8.414-8.128,12.07c-4.039,2.742-8.154,4.257-8.195,4.272C170.659,157.096,170.632,157.101,170.603,157.101z
			 M171.184,132.645l-0.333,23.858c2.304-0.915,15.817-6.674,15.673-15.75c-0.035-2.192-0.824-3.979-2.345-5.312
			C180.25,132,172.556,132.52,171.184,132.645z"/>
	</g>
	<path style="fill:#8E5B3A;" d="M170.944,132.425l-0.341,24.434c0,0,16.324-5.948,16.163-16.109S170.944,132.425,170.944,132.425z"
		/>
	<path style="fill:#8E5B3A;" d="M170.944,132.425l-0.341,24.434c0,0,16.324-5.948,16.163-16.109S170.944,132.425,170.944,132.425z"
		/>
	<g>
		<path style="fill:#B4715A;" d="M164.452,175.425c0.081-2.488,0.08-4.991,0.405-7.444c0.331-2.497,0.899-4.938,1.698-7.262
			c0.8-2.327,1.844-4.517,2.93-6.664c0.56-1.106,1.184-2.14,1.915-3.095c0.599-0.783,1.383-1.344,1.853-2.263
			c0.131-0.256-0.034-0.63-0.282-0.695c-1.28-0.337-2.464-0.073-3.527,0.544c0.018-0.025,0.036-0.049,0.053-0.074
			c0.075-0.127,0.138-0.261,0.216-0.385c2.286-3.672,5.791-6.566,9.841-6.784c1.728-0.093,3.488,0.279,5.043,1.297
			c1.431,0.938,2.609,2.338,3.522,3.924c0.959,1.666,1.659,3.51,2.199,5.395c0.564,1.969,1.009,4.012,1.223,6.057
			c0.527,5.032-0.261,10.189-2.046,14.664c-1.844,4.625-4.849,8.439-8.567,11.066c-1.728,1.22-3.582,2.223-5.526,2.925
			c-1.864,0.673-3.887,1.13-5.878,0.842c-1.89-0.274-3.692-1.292-4.767-3.237c-0.403-0.73-0.718-1.535-0.971-2.373
			C164.242,179.777,164.381,177.601,164.452,175.425z"/>
		<path style="fill:#FDD4B5;" d="M166.812,185.658c1.621,1.296,3.732,1.322,5.548,1.023c1.871-0.308,3.679-1.007,5.386-1.887
			c3.866-1.993,7.237-5.175,9.561-9.294c2.215-3.927,3.484-8.665,3.66-13.453c0.151-4.126-0.603-8.38-2.037-12.238
			c-1.26-3.392-3.332-6.629-6.529-7.584c-3.876-1.157-7.809,0.979-10.443,4.029c-0.008,0.01-0.015,0.02-0.024,0.03
			c0.05,0.082,0.06,0.175-0.014,0.264c-0.87,1.05-1.663,2.174-2.397,3.348c-0.203,0.394-0.394,0.796-0.575,1.204
			c-0.235,0.356-0.456,0.726-0.666,1.103c-0.871,1.387-1.591,2.91-2.074,4.546c-1.773,4.85-2.685,10.19-2.757,15.528
			c-0.036,2.65,0.179,5.302,0.739,7.905C164.625,182.207,165.246,184.406,166.812,185.658z"/>
		<path style="fill:#FDD4B5;" d="M189.957,161.964c-0.137-3.768-0.916-7.708-2.83-10.903c-2.221-3.71-5.623-6.579-9.516-6.659
			c-1.847-0.038-3.597,0.508-5.228,1.383c2.621-2.794,6.344-4.656,10.017-3.56c3.197,0.954,5.268,4.192,6.529,7.584
			c1.434,3.858,2.188,8.112,2.037,12.238c-0.127,3.478-0.839,6.925-2.063,10.058C189.692,168.837,190.082,165.401,189.957,161.964z"
			/>
		<path style="fill:#FDD4B5;" d="M163.451,172.279c0.072-5.338,0.984-10.678,2.757-15.528c0.483-1.636,1.203-3.159,2.074-4.546
			c0.211-0.377,0.431-0.747,0.666-1.103c0.182-0.408,0.372-0.811,0.575-1.204c0.734-1.174,1.527-2.299,2.397-3.348
			c0.074-0.089,0.064-0.182,0.014-0.264c0.008-0.01,0.015-0.02,0.024-0.03c0.539-0.624,1.134-1.206,1.769-1.733
			c-0.542,0.946-1.012,1.947-1.402,2.96c-0.986,2.56-1.692,5.629-1.037,8.5c0.13,0.57,0.755,0.424,0.88-0.019
			c0.887-3.165,2.96-5.826,5.836-6.482c2.16-0.492,4.454,0.376,5.989,2.348c2.018,2.594,2.399,6.433,2.152,9.689
			c-0.263,3.471-1.308,6.99-3.38,9.466c-2.143,2.56-5.134,3.248-8.143,2.207c-0.141-0.049-0.35,0.004-0.436,0.147
			c-1.297,2.168-1.889,5.722-0.302,8.068c1.069,1.582,2.585,2.564,4.278,2.662c0.317,0.018,0.632-0.001,0.944-0.038
			c-0.445,0.271-0.897,0.527-1.358,0.764c-1.707,0.88-3.515,1.579-5.386,1.887c-1.816,0.299-3.927,0.273-5.548-1.023
			c-1.566-1.253-2.188-3.451-2.623-5.475C163.63,177.581,163.415,174.928,163.451,172.279z"/>
		<path style="fill:#B4715A;" d="M171.887,175.986c-0.215-0.634-0.355-1.276-0.305-1.906c0.062-0.227,0.131-0.451,0.216-0.67
			c0.231-0.597,0.541-1.122,0.879-1.621c-0.013-0.018-0.025-0.037-0.039-0.054c0.132-0.181,0.266-0.36,0.402-0.538
			c0.015,0.006,0.031,0.009,0.045,0.016c0.537-0.727,1.107-1.427,1.561-2.238c0.48-0.858,0.86-1.878,0.303-2.862
			c-0.504-0.889-1.208-1.63-1.77-2.47c-1.084-1.618-1.674-3.52-1.604-5.535c0.125-3.578,2.034-6.477,4.73-7.903
			c2.477-1.31,5.602-1.554,7.768,0.918c1.151,1.314,1.993,3.045,2.514,4.796c0.492,1.659,0.752,3.466,0.343,5.14
			c-0.051,0.207-0.402,0.082-0.37-0.13c0.225-1.447-0.064-3.04-0.484-4.441c-0.464-1.549-1.14-3.045-2.066-4.305
			c-0.842-1.146-1.846-1.951-3.129-2.125c-1.367-0.185-2.742,0.204-3.962,0.83c-2.583,1.324-4.445,4.205-4.456,7.631
			c-0.007,1.988,0.652,3.708,1.758,5.249c0.547,0.763,1.213,1.474,1.637,2.342c0.378,0.773,0.346,1.576,0.066,2.353
			c-0.48,1.329-1.352,2.31-2.165,3.348c0.605,0.479,1.317,0.716,2.04,0.858c0.926,0.182,1.899,0.27,2.825,0.175
			c2.068-0.212,4.278-1.49,4.997-3.863c0.033-0.109,0.229-0.042,0.201,0.071c-0.649,2.657-2.777,4.194-5.058,4.495
			c-1.063,0.141-2.201,0.031-3.262-0.207c-0.697-0.156-1.544-0.413-2.206-0.913c-0.176,0.245-0.347,0.494-0.502,0.758
			c-0.424,0.721-0.721,1.518-0.86,2.391C171.911,175.71,171.901,175.848,171.887,175.986z"/>
	</g>
	<g>
		<path style="fill:#B4715A;" d="M39.43,173.351c-0.471-2.445-0.862-4.916-1.569-7.288c-0.719-2.414-1.664-4.736-2.818-6.906
			c-1.155-2.172-2.531-4.172-3.94-6.121c-0.726-1.005-1.505-1.927-2.377-2.756c-0.715-0.68-1.577-1.111-2.185-1.944
			c-0.169-0.232-0.065-0.627,0.169-0.73c1.211-0.533,2.422-0.459,3.568-0.017c-0.021-0.021-0.043-0.043-0.064-0.065
			c-0.094-0.113-0.177-0.236-0.273-0.347c-2.834-3.267-6.75-5.575-10.784-5.155c-1.721,0.179-3.401,0.823-4.777,2.073
			c-1.266,1.151-2.21,2.719-2.862,4.429c-0.686,1.796-1.087,3.727-1.324,5.673c-0.248,2.033-0.367,4.12-0.257,6.174
			c0.27,5.052,1.858,10.021,4.323,14.161c2.547,4.278,6.113,7.573,10.199,9.583c1.898,0.934,3.887,1.633,5.916,2.021
			c1.946,0.372,4.016,0.506,5.937-0.091c1.824-0.567,3.444-1.855,4.2-3.945c0.284-0.785,0.468-1.629,0.586-2.496
			C40.32,177.616,39.842,175.489,39.43,173.351z"/>
		<path style="fill:#FDD4B5;" d="M38.706,183.828c-1.397,1.535-3.479,1.891-5.319,1.881c-1.896-0.01-3.791-0.417-5.616-1.018
			c-4.131-1.361-7.96-3.975-10.901-7.678c-2.804-3.531-4.802-8.01-5.726-12.712c-0.797-4.051-0.72-8.37,0.09-12.406
			c0.712-3.548,2.25-7.07,5.257-8.515c3.646-1.752,7.866-0.26,10.946,2.34c0.01,0.008,0.019,0.018,0.028,0.026
			c-0.036,0.089-0.032,0.182,0.055,0.258c1.024,0.9,1.984,1.886,2.893,2.93c0.263,0.357,0.514,0.725,0.757,1.099
			c0.288,0.315,0.564,0.645,0.831,0.985c1.078,1.233,2.028,2.624,2.762,4.164c2.512,4.512,4.252,9.642,5.161,14.902
			c0.451,2.611,0.656,5.264,0.511,7.923C40.324,180.076,40.056,182.344,38.706,183.828z"/>
		<path style="fill:#FDD4B5;" d="M12.128,164.061c-0.457-3.742-0.305-7.756,1.083-11.212c1.611-4.012,4.521-7.38,8.352-8.071
			c1.818-0.328,3.632-0.064,5.38,0.545c-3.027-2.348-6.996-3.603-10.451-1.943c-3.007,1.445-4.545,4.967-5.257,8.515
			c-0.81,4.036-0.887,8.355-0.09,12.406c0.672,3.415,1.915,6.707,3.617,9.609C13.468,170.807,12.544,167.475,12.128,164.061z"/>
		<path style="fill:#FDD4B5;" d="M39.925,170.087c-0.909-5.26-2.648-10.391-5.161-14.903c-0.734-1.54-1.684-2.931-2.762-4.164
			c-0.267-0.34-0.543-0.67-0.831-0.985c-0.243-0.375-0.494-0.742-0.757-1.099c-0.909-1.045-1.869-2.031-2.893-2.93
			c-0.087-0.076-0.092-0.169-0.055-0.258c-0.01-0.008-0.018-0.018-0.028-0.026c-0.63-0.532-1.309-1.013-2.02-1.434
			c0.684,0.849,1.305,1.764,1.849,2.703c1.375,2.373,2.555,5.294,2.359,8.232c-0.039,0.583-0.679,0.537-0.872,0.119
			c-1.373-2.986-3.838-5.289-6.781-5.485c-2.21-0.147-4.34,1.071-5.546,3.26c-1.585,2.878-1.359,6.73-0.604,9.906
			c0.805,3.387,2.389,6.697,4.825,8.818c2.518,2.192,5.58,2.402,8.389,0.902c0.132-0.071,0.347-0.051,0.454,0.077
			c1.621,1.937,2.764,5.355,1.565,7.921c-0.808,1.73-2.151,2.938-3.807,3.301c-0.31,0.068-0.624,0.098-0.938,0.11
			c0.482,0.197,0.969,0.38,1.461,0.542c1.824,0.601,3.72,1.007,5.616,1.018c1.84,0.01,3.922-0.347,5.319-1.881
			c1.35-1.483,1.619-3.752,1.731-5.819C40.581,175.35,40.376,172.697,39.925,170.087z"/>
		<path style="fill:#B4715A;" d="M32.175,175.072c0.113-0.66,0.15-1.316,0.002-1.93c-0.097-0.215-0.2-0.425-0.318-0.628
			c-0.322-0.553-0.71-1.023-1.123-1.463c0.009-0.02,0.019-0.04,0.03-0.06c-0.158-0.158-0.319-0.314-0.481-0.468
			c-0.014,0.008-0.029,0.014-0.042,0.023c-0.645-0.634-1.318-1.235-1.893-1.965c-0.609-0.772-1.145-1.72-0.749-2.779
			c0.358-0.957,0.937-1.799,1.361-2.718c0.816-1.768,1.101-3.74,0.715-5.719c-0.685-3.514-3.026-6.077-5.913-7.063
			c-2.652-0.905-5.777-0.656-7.527,2.126c-0.93,1.478-1.491,3.32-1.729,5.132c-0.226,1.716-0.199,3.541,0.468,5.13
			c0.083,0.196,0.41,0.018,0.345-0.186c-0.45-1.394-0.414-3.013-0.22-4.462c0.215-1.603,0.648-3.187,1.364-4.577
			c0.652-1.264,1.517-2.217,2.757-2.59c1.32-0.397,2.74-0.229,4.043,0.198c2.758,0.902,5.05,3.455,5.599,6.837
			c0.319,1.962-0.061,3.764-0.912,5.46c-0.42,0.839-0.966,1.646-1.249,2.57c-0.252,0.823-0.094,1.611,0.305,2.334
			c0.683,1.238,1.698,2.07,2.664,2.967c-0.523,0.568-1.188,0.914-1.88,1.168c-0.885,0.325-1.833,0.565-2.762,0.616
			c-2.076,0.115-4.459-0.799-5.541-3.031c-0.05-0.103-0.233-0.006-0.188,0.102c1.058,2.522,3.401,3.706,5.701,3.646
			c1.071-0.028,2.179-0.315,3.189-0.717c0.664-0.264,1.46-0.65,2.035-1.248c0.212,0.214,0.42,0.434,0.615,0.67
			c0.532,0.645,0.95,1.386,1.225,2.226C32.108,174.804,32.14,174.938,32.175,175.072z"/>
	</g>
	<g>
		<path style="fill:#FDD4B5;" d="M78.215,67.465c0,0-46.55,5.997-45.122,60.258c5.997,61.971,3.998,74.537,29.129,92.814
			c26.845,21.419,33.127,24.56,43.408,24.56c10.281,0,20.562-7.711,40.267-23.132c12.851-10.852,22.561-19.991,23.703-44.551
			c1.142-24.56,3.788-55.06-3.141-81.105C158.177,65.18,107.344,62.61,78.215,67.465z"/>
		<path style="fill:#B4715A;" d="M105.63,245.338c-10.157,0-16.343-2.898-43.56-24.613c-22.255-16.186-23.341-28.237-27.378-73.077
			c-0.532-5.913-1.136-12.615-1.841-19.903C32.11,99.593,44.474,84.64,54.976,77.049c11.281-8.154,22.893-9.783,23.202-9.824
			c17.264-2.876,36.713-2.528,52.029,0.931c20.193,4.561,32.81,14.274,36.485,28.09c6.153,23.128,4.786,49.416,3.581,72.609
			c-0.152,2.923-0.301,5.785-0.43,8.57c-1.11,23.857-10.14,33.197-23.79,44.725C126.04,237.812,115.965,245.338,105.63,245.338z
			 M102.213,65.775c-8.045,0-16.222,0.64-23.959,1.929c-0.003,0.001-0.006,0.001-0.009,0.001
			c-0.116,0.015-11.724,1.591-23.002,9.749c-10.4,7.523-22.643,22.349-21.908,50.261c0.704,7.272,1.308,13.975,1.84,19.889
			c4.022,44.667,5.103,56.673,27.189,72.735c27.108,21.629,33.244,24.513,43.265,24.513c10.175,0,20.201-7.493,40.118-23.081
			c13.545-11.438,22.51-20.709,23.611-44.37c0.13-2.786,0.278-5.649,0.431-8.572c1.204-23.158,2.569-49.405-3.565-72.459
			c-4.582-17.22-22.174-24.591-36.124-27.742C121.703,66.732,112.057,65.775,102.213,65.775z M78.215,67.465h0.006H78.215z"/>
	</g>
	<g>
		<path style="fill:#FDD4B5;" d="M88.146,134.613c0,0-31.396-12.257-47.74,2.15c6.021-10.322,23.756-14.935,42.148-11.397
			C87.674,126.351,90.163,129.052,88.146,134.613z"/>
		<path style="fill:#FDD4B5;" d="M88.914,126.471c-0.079-0.147-0.382,0.162-0.325,0.288c1.006,2.236,1.885,4.833,0.735,7.191
			c-0.173,0.355,0.283,0.202,0.396,0.008C91.146,131.521,90.14,128.753,88.914,126.471z"/>
		<path style="fill:#FDD4B5;" d="M91.211,129.758c-0.061-0.169-0.385,0.172-0.354,0.312c0.176,0.793,0.254,1.591,0.208,2.402
			c-0.045,0.786-0.253,1.531-0.458,2.286c-0.029,0.105,0.026,0.156,0.126,0.139c0.118-0.02,0.222-0.159,0.271-0.256
			C91.737,133.186,91.756,131.277,91.211,129.758z"/>
	</g>
	<g>
		<path style="fill:#FDD4B5;" d="M166.459,96.308c-8.282-31.128-59.115-33.698-88.245-28.844c0,0-46.55,5.997-45.122,60.258
			c0,0,11.207-40.237,54.297-39.173c34.578,2.128,42.558,13.831,51.601,27.663c-13.299,0-24.825,9.892-21.722,14.522
			c22.786-3.882,45.632-3.303,47.508,16.091c1.876,19.393,2.94,40.14-7.699,57.163s-32.982,31.387-45.218,36.174
			c-12.235,4.788-22.875-3.192-39.366-15.427c-14.936-11.082-22.454-14.309-28.877-25.096c3.648,8.072,9.243,14.089,18.605,20.897
			c26.845,21.419,33.127,24.56,43.408,24.56c10.281,0,20.562-7.711,40.267-23.132c12.851-10.852,22.561-19.991,23.703-44.551
			C170.743,152.853,173.389,122.353,166.459,96.308z"/>
	</g>
	<path style="fill:#FDD4B5;" d="M88.032,169.527c0,0,3.149-21.357-12.557-29.37c-16.13-8.229-27.574,2.668-29.792,14.314
		C44.573,162.789,61.874,184.124,88.032,169.527z"/>
	<path style="fill:#FDD4B5;" d="M121.262,169.527c0,0-3.149-21.357,12.557-29.37c16.13-8.229,27.574,2.668,29.793,14.314
		C164.72,162.789,147.42,184.124,121.262,169.527z"/>
	<g>
		<path d="M84.522,158.877c-0.484-1.762-1.108-3.466-1.94-5.05c-1.335-2.544-3.105-4.878-5.314-6.726
			c-5.116-4.28-12.03-5.134-18.404-3.717c-3.871,0.86-6.236,0.322-6.236,0.322s1.828,1.398,3.118,1.613
			c-5.484,1.29-9.032,2.688-11.72,1.505c2.796,1.828,4.086,1.828,4.086,1.828s-3.656,3.226-8.494,2.258
			c3.441,2.365,8.172,1.935,8.172,1.935s-2.849,6.451,4.086,11.935c6.154,4.866,13.765,6.822,21.54,6.366
			c4.278-0.251,8.716-1.033,12.768-2.443C85.822,165.486,85.404,162.086,84.522,158.877z"/>
		<path style="fill:#1B0101;" d="M43.194,156.871c1.571,0.115,3.179-0.349,4.447-1.283c-1.157,1.213-2.749,2.003-4.416,2.191
			c1.606,0.238,3.293-0.108,4.676-0.958c-1.207,1.051-2.677,1.798-4.238,2.152c1.662-0.05,3.312-0.489,4.778-1.273
			c-0.813,0.887-1.625,1.773-2.438,2.66c0.782-0.13,1.537-0.416,2.209-0.836c-0.478,0.67-1.073,1.257-1.75,1.725
			c0.886-0.192,1.772-0.383,2.658-0.575c-0.595,0.567-1.189,1.134-1.784,1.701c0.949-0.228,1.898-0.455,2.848-0.683
			c-2.167,1.004-4.05,2.612-5.381,4.595c1.549-1.863,3.74-3.182,6.111-3.681c-2.595,1.754-4.856,4.001-6.625,6.586
			c1.856-2.176,4.264-3.879,6.934-4.903c-0.648,0.746-1.296,1.493-1.943,2.24c0.873-0.774,1.954-1.312,3.098-1.542
			c-0.589,0.736-1.177,1.472-1.766,2.208c0.908-0.633,2.017-0.975,3.124-0.962c-0.363,0.398-0.726,0.797-1.089,1.195
			c0.62-0.38,1.331-0.611,2.057-0.667c-0.613,0.972-1.226,1.945-1.839,2.917c0.657-0.831,1.567-1.46,2.577-1.781
			c1.805-0.317,3.266,0.652,3.847,0.426c-0.556-1.645-4.219-2.831-5.543-3.955c-2.331-1.979-4.066-4.638-4.984-7.551
			c-0.218-0.691-0.226-1.65-0.54-2.28c-0.462-0.927-0.34-0.686-1.112,0.035C45.96,155.643,44.75,156.489,43.194,156.871z"/>
	</g>
	<g>
		<path d="M124.267,158.873c3.064-11.575,13.588-18.005,25.673-15.49c3.871,0.86,6.236,0.322,6.236,0.322s-1.828,1.398-3.118,1.613
			c5.484,1.29,9.032,2.688,11.72,1.505c-2.796,1.828-4.086,1.828-4.086,1.828s3.656,3.226,8.494,2.258
			c-3.441,2.365-8.172,1.935-8.172,1.935s2.849,6.451-4.086,11.935c-6.935,5.484-17.315,9.127-34.382,3.918
			c-0.071-0.022,1.073-6.604,1.188-7.313C123.874,160.523,124.052,159.686,124.267,158.873z"/>
		<path style="fill:#1B0101;" d="M165.785,156.871c-1.571,0.115-3.179-0.349-4.447-1.283c1.157,1.213,2.749,2.003,4.416,2.191
			c-1.606,0.238-3.293-0.108-4.676-0.958c1.207,1.051,2.677,1.798,4.238,2.152c-1.662-0.05-3.312-0.489-4.778-1.273
			c0.813,0.887,1.625,1.773,2.438,2.66c-0.782-0.13-1.537-0.416-2.209-0.836c0.478,0.67,1.073,1.257,1.75,1.725
			c-0.886-0.192-1.772-0.383-2.658-0.575c0.594,0.567,1.189,1.134,1.783,1.701c-0.949-0.228-1.898-0.455-2.848-0.683
			c2.167,1.004,4.05,2.612,5.381,4.595c-1.549-1.863-3.74-3.182-6.111-3.681c2.595,1.754,4.856,4.001,6.626,6.586
			c-1.856-2.176-4.264-3.879-6.935-4.903c0.648,0.746,1.296,1.493,1.943,2.24c-0.873-0.774-1.954-1.312-3.098-1.542
			c0.589,0.736,1.177,1.472,1.766,2.208c-0.908-0.633-2.017-0.975-3.124-0.962c0.363,0.398,0.726,0.797,1.089,1.195
			c-0.62-0.38-1.331-0.611-2.057-0.667c0.613,0.972,1.226,1.945,1.839,2.917c-0.657-0.831-1.567-1.46-2.577-1.781
			c-1.805-0.317-3.266,0.652-3.847,0.426c0.556-1.645,4.219-2.831,5.543-3.955c2.331-1.979,4.066-4.638,4.984-7.551
			c0.218-0.691,0.226-1.65,0.54-2.28c0.462-0.927,0.34-0.686,1.112,0.035C163.019,155.643,164.23,156.489,165.785,156.871z"/>
	</g>
	<g>
		<path style="fill:#62351D;" d="M86.61,132.309c0,0-31.396-12.257-47.74,2.151c6.021-10.322,23.756-14.935,42.148-11.397
			C86.138,124.046,88.626,126.747,86.61,132.309z"/>
		<path style="fill:#62351D;" d="M87.377,124.166c-0.079-0.147-0.382,0.161-0.325,0.288c1.006,2.236,1.885,4.833,0.735,7.191
			c-0.173,0.355,0.283,0.202,0.396,0.008C89.61,129.217,88.603,126.448,87.377,124.166z"/>
		<path style="fill:#62351D;" d="M89.675,127.453c-0.061-0.169-0.385,0.172-0.354,0.312c0.176,0.793,0.254,1.591,0.208,2.402
			c-0.045,0.786-0.253,1.531-0.458,2.286c-0.029,0.105,0.026,0.156,0.126,0.139c0.118-0.02,0.222-0.159,0.271-0.256
			C90.201,130.882,90.22,128.972,89.675,127.453z"/>
	</g>
	<g>
		<path style="fill:#62351D;" d="M119.73,130.588c0,0,31.396-12.257,47.74,2.15c-6.021-10.322-23.756-14.935-42.148-11.397
			C120.202,122.326,117.714,125.027,119.73,130.588z"/>
		<path style="fill:#62351D;" d="M118.963,122.446c0.079-0.147,0.382,0.162,0.325,0.288c-1.006,2.236-1.885,4.833-0.735,7.191
			c0.173,0.355-0.283,0.202-0.396,0.008C116.73,127.496,117.737,124.728,118.963,122.446z"/>
		<path style="fill:#62351D;" d="M116.665,125.732c0.061-0.169,0.385,0.172,0.354,0.312c-0.176,0.793-0.254,1.591-0.208,2.402
			c0.045,0.786,0.253,1.531,0.458,2.286c0.029,0.105-0.026,0.156-0.126,0.139c-0.118-0.02-0.222-0.159-0.271-0.256
			C116.139,129.161,116.12,127.252,116.665,125.732z"/>
	</g>
	<g>
		<path style="fill:#E4E5E6;" d="M122.547,168.698c0,0-0.153-22.717,20.735-23.48c12.655,0.152,16.314,7.623,16.466,10.673
			C159.9,158.941,153.954,174.949,122.547,168.698z"/>
		<path style="fill:#D6A174;" d="M135.803,170.375c-3.807,0-8.212-0.425-13.304-1.439c-0.113-0.022-0.194-0.121-0.195-0.236
			c-0.002-0.229,0.087-22.961,20.97-23.724c13.211,0.159,16.578,8.125,16.717,10.903c0.067,1.367-1.062,5.285-4.986,8.671
			C151.631,167.462,145.765,170.375,135.803,170.375z M122.792,168.5c18.095,3.558,27.332-0.378,31.896-4.317
			c3.789-3.27,4.882-6.99,4.818-8.28c-0.133-2.659-3.4-10.288-16.227-10.442C123.912,146.168,122.849,166.279,122.792,168.5z"/>
	</g>
	<path style="fill:#FFFFFF;" d="M124.994,167.248c0,0-0.132-19.729,18.007-20.391c10.99,0.132,14.168,6.62,14.3,9.268
		C157.434,158.774,152.27,172.677,124.994,167.248z"/>
	<path style="fill:#B4715A;" d="M152.856,141.33c-4.567-2.148-10.177-2.016-14.909-0.513c-4.296,1.364-8.131,4.089-10.976,7.657
		c-1.521,1.908-2.871,4.121-3.624,6.476c-0.046,0.143,0.157-0.007,0.181-0.063c0.909-2.063,1.921-4.03,3.288-5.816
		c1.345-1.757,2.921-3.321,4.692-4.62c3.79-2.779,8.373-4.235,13.024-4.218c2.768,0.01,5.471,0.61,8.112,1.423
		C152.758,141.69,152.99,141.394,152.856,141.33z"/>
	<g>
		<path style="fill:#E4E5E6;" d="M86.258,168.698c0,0,0.152-22.717-20.735-23.48c-12.655,0.152-16.314,7.623-16.466,10.673
			C48.904,158.941,54.85,174.949,86.258,168.698z"/>
		<path style="fill:#D6A174;" d="M73.001,170.375c-9.964,0-15.831-2.914-19.204-5.827c-3.924-3.387-5.052-7.303-4.984-8.669
			c0.139-2.778,3.507-10.744,16.706-10.903c20.894,0.763,20.983,23.495,20.981,23.724c-0.001,0.115-0.082,0.214-0.195,0.236
			C81.213,169.95,76.807,170.375,73.001,170.375z M65.513,145.461c-12.815,0.154-16.083,7.783-16.215,10.443
			c-0.064,1.289,1.028,5.008,4.815,8.278c4.564,3.94,13.798,7.879,31.899,4.319C85.955,166.279,84.892,146.168,65.513,145.461z
			 M86.258,168.698h0.006H86.258z"/>
	</g>
	<path style="fill:#FFFFFF;" d="M84.084,167.411c0,0,0.135-20.063-18.313-20.736c-11.176,0.135-14.408,6.733-14.542,9.426
		C51.095,158.793,56.346,172.931,84.084,167.411z"/>
	<path style="fill:#B4715A;" d="M55.948,141.33c4.568-2.148,10.177-2.016,14.909-0.513c4.296,1.364,8.131,4.089,10.976,7.657
		c1.521,1.908,2.871,4.121,3.624,6.476c0.046,0.143-0.157-0.007-0.181-0.063c-0.909-2.063-1.921-4.03-3.288-5.816
		c-1.345-1.757-2.922-3.321-4.692-4.62c-3.79-2.779-8.373-4.235-13.024-4.218c-2.768,0.01-5.471,0.61-8.112,1.423
		C56.046,141.69,55.814,141.394,55.948,141.33z"/>
	<g>
		<path style="opacity:0.6;fill:#FDD4B5;" d="M115.877,190.131c-0.253-0.186-0.547-0.563-0.878-1.064
			c-0.876,1.78-2.158,3.482-3.951,4.368c-2.172,1.073-4.53,0.496-6.429-0.87c-2.69-1.936-4.622-4.771-4.266-8.189
			c0.149-1.434,0.627-2.808,1.216-4.119c-0.002,0.002-0.004,0.003-0.006,0.005c-0.313,0.295-8.173,9.464-9.464,14.483
			c-1.291,5.019,2.724,6.166,7.6,6.022c2.724,0,3.871,1.721,7.313,0c2.294-1.147,7.887-0.574,9.894-2.724
			C118.914,195.891,118.028,191.708,115.877,190.131z"/>
		<path style="fill:#FDD4B5;" d="M98.699,183.87c0,0-6.874,8.636-6.169,13.395c1.058,4.23,14.981,4.935,23.97,2.291
			c2.115-1.058,2.467-5.111-4.759-4.582C104.515,195.502,93.059,197.794,98.699,183.87z"/>
		<path style="fill:#B4715A;" d="M106.743,200.669c-3.62,0.547-7.612,0.485-11.084-0.788c-1.349-0.494-2.749-1.296-3.424-2.622
			c-0.902-1.771-0.128-3.784,0.73-5.409c0.994-1.883,2.316-3.584,3.621-5.259c0.109-0.139,0.014-0.23-0.103-0.09
			c-1.262,1.505-2.535,3.01-3.53,4.711c-0.916,1.565-1.851,3.461-1.558,5.329c0.551,3.515,5.137,4.443,8.022,4.805
			c2.383,0.299,4.771,0.221,7.126-0.245C106.693,201.07,106.977,200.634,106.743,200.669z"/>
		<path style="fill:#B4715A;" d="M117.961,194.643c-0.25-1.052-0.705-2.046-1.254-2.974c-0.035-0.06-0.168,0.077-0.143,0.129
			c0.398,0.827,0.69,1.695,0.885,2.591c0.185,0.852,0.346,1.751,0.271,2.626c-0.183,2.132-2.597,2.326-4.177,2.993
			c-0.12,0.051-0.406,0.521-0.166,0.453c1.791-0.506,4.113-0.845,4.722-2.943C118.368,196.593,118.179,195.562,117.961,194.643z"/>
		<path style="fill:#E2AB86;" d="M108.257,199.969c0,0,0.774-2.708,3.537-2.874C114.558,196.93,116.658,199.583,108.257,199.969z"/>
		<path style="fill:#E2AB86;" d="M102.568,200.191c0,0-0.774-2.708-3.537-2.874C96.267,197.151,94.167,199.804,102.568,200.191z"/>
		<path style="fill:#FDD1AB;" d="M112.17,186.648c0.532,1.249,0.37,2.514-0.361,2.825c-0.731,0.311-1.755-0.449-2.287-1.698
			c-0.532-1.249-0.37-2.514,0.361-2.825C110.615,184.638,111.639,185.399,112.17,186.648z"/>
	</g>
	<g>
		<path style="fill:#8E5B3A;" d="M77.85,51.858c-17.798,4.779-11.42,23.876-7.955,31.689c0.09-0.016,0.173-0.038,0.264-0.054
			c0,0,1.29-3.871,5.484-1.935c4.193,1.935,5.161-1.935,9.032-0.968c3.871,0.968,11.935-0.968,18.064,2.903
			c9.633-2.408,17.299-1.158,24.048,7.147C116.974,71.124,99.73,45.983,77.85,51.858z"/>
		<path style="fill:#62351D;" d="M126.785,90.883c-0.071,0-0.14-0.031-0.188-0.089c-6.161-7.583-13.278-9.696-23.8-7.064
			c-0.063,0.015-0.131,0.005-0.188-0.03c-4.026-2.543-8.942-2.543-12.892-2.543c-2.029,0-3.782,0-5.101-0.33
			c-1.689-0.422-2.773,0.111-3.92,0.677c-1.367,0.674-2.783,1.37-5.154,0.275c-1.258-0.581-2.363-0.675-3.283-0.279
			c-1.354,0.583-1.864,2.057-1.869,2.072c-0.028,0.084-0.101,0.147-0.189,0.162l-0.262,0.054c-0.107,0.021-0.218-0.038-0.264-0.14
			c-2.506-5.649-6.156-16.283-2.46-24.024c1.876-3.927,5.434-6.618,10.574-7.998l0.063,0.234l-0.063-0.234
			c11.921-3.204,30.133,0.951,49.215,38.907c0.055,0.111,0.019,0.245-0.085,0.313C126.876,90.87,126.831,90.883,126.785,90.883z
			 M110.697,82.16c5.964,0,10.713,2.199,14.965,6.811c-18.599-36.013-36.194-39.984-47.75-36.878
			c-4.998,1.342-8.45,3.946-10.261,7.739c-3.562,7.458-0.108,17.748,2.359,23.378c0.204-0.472,0.808-1.616,2.051-2.153
			c1.052-0.456,2.291-0.361,3.683,0.282c2.163,0.998,3.412,0.383,4.737-0.27c1.175-0.579,2.389-1.177,4.251-0.713
			c3.779,0.944,11.849-0.969,18.047,2.878C105.651,82.522,108.274,82.16,110.697,82.16z"/>
	</g>
	<path style="fill:#8E5B3A;" d="M114.603,79.717c-1.237-0.032-2.472-0.184-3.673-0.487c-1.367-0.345-2.56-0.939-3.805-1.589
		c-1.371-0.716-2.812-1.454-4.367-1.644c-1.759-0.215-3.423,0.353-4.905,1.277c-0.465,0.29-0.693-0.6-0.653-0.906
		c0.338-2.623,1.02-5.33,2.545-7.532c1.177-1.699,2.803-2.889,4.689-3.556c-1.035-0.306-2.113-0.462-3.194-0.44
		c-3.191,0.064-6.298,1.327-8.854,3.193c-2.476,1.807-4.642,4.336-5.453,7.345c-0.19,0.705-0.715,0.048-0.664-0.397
		c0.202-1.786,0.464-3.569,0.909-5.313c0.647-2.535,1.717-4.936,3.412-6.946c0.96-1.139,2.083-2.126,3.292-3.001
		c-0.482,0.149-0.965,0.297-1.447,0.449c-6.132,1.927-12.547,4.354-16.252,9.941c-0.132,0.199-0.651,0.424-0.58-0.007
		c0.398-2.398,1.023-4.858,2.118-7.052c-2.775,3.028-5.313,6.303-4.917,10.628c0.028,0.301-0.721,0.633-0.775,0.275
		c-0.34-2.294-0.71-4.586-0.94-6.894c-0.371-3.727-0.404-7.609,0.944-11.16c0.28-0.739,0.631-1.432,1.018-2.099
		c-11.686,6.707-6.26,22.749-3.156,29.747c0.09-0.016,0.173-0.038,0.264-0.054c0,0,1.29-3.871,5.484-1.935
		c4.193,1.935,5.161-1.935,9.032-0.968c3.871,0.968,11.935-0.968,18.064,2.903c9.633-2.408,17.299-1.158,24.048,7.147
		c-1.896-3.771-4.072-7.751-6.503-11.678C118.436,79.505,116.508,79.766,114.603,79.717z"/>
	<g>
		<g>
			<path style="fill:#8E5B3A;" d="M57.375,80.788c-9.603,2.744-30.518,21.069-22.272,66.733c-0.138-1.903-0.29-4.003-0.456-6.327
				c-1.159-16.217,2.595-51.793,35.1-57.615C68.121,81.623,64.408,78.779,57.375,80.788z"/>
			<path style="fill:#62351D;" d="M35.103,147.764c-0.116,0-0.218-0.083-0.239-0.199c-2.481-13.737-3.719-33.495,4.465-49.615
				c5.373-10.583,13.043-15.985,17.979-17.395l0,0c7.199-2.055,11.001,0.914,12.625,2.869c0.055,0.066,0.071,0.157,0.041,0.238
				c-0.029,0.081-0.099,0.14-0.185,0.155c-14.104,2.526-24.195,10.858-29.992,24.764c-5.733,13.75-5.206,28.425-4.909,32.596
				c0.166,2.324,0.317,4.423,0.456,6.327c0.009,0.128-0.083,0.242-0.211,0.258C35.122,147.763,35.112,147.764,35.103,147.764z
				 M57.441,81.021L57.441,81.021c-8.065,2.305-28.729,18.363-22.99,60.825c-0.015-0.209-0.03-0.422-0.046-0.635
				c-0.371-5.19-2.526-50.753,34.879-57.794C67.599,81.572,63.994,79.151,57.441,81.021z"/>
		</g>
		<path style="fill:#8E5B3A;" d="M57.375,80.788c-9.603,2.744-30.518,21.069-22.272,66.733c-0.138-1.903-0.29-4.003-0.456-6.327
			c-1.159-16.217,2.595-51.793,35.1-57.615C68.121,81.623,64.408,78.779,57.375,80.788z"/>
		<g>
			<path style="fill:#8E5B3A;" d="M193.378,111.234c13.87,0.968,20.644-6.129,20.644-6.129s-12.257,4.516-22.902-2.258
				c1.29-25.805-10.585-59.611-36.412-71.71c-16.753-18.614-67.942-26.293-96.561,1.861c-13.495,3.025-43.278,28.619-46.303,62.125
				c-2.094,23.733,0.233,51.189,24.431,67.942c0,0-0.342-4.111-1.173-15.545c-8.246-45.664,12.669-63.989,22.272-66.733
				c7.033-2.009,10.746,0.835,12.372,2.791c0.05-0.009,0.097-0.022,0.148-0.031c-3.465-7.813-9.843-26.91,7.955-31.689
				c21.88-5.875,39.125,19.266,48.936,38.782c0.483,0.594,0.961,1.218,1.435,1.885c7.096,10,22.257,32.257,46.127,43.224
				c20.967,11.612,29.353,33.869,23.225,50.965c5.161-7.741,5.806-13.548,5.806-13.548s0.551,1.818-0.009,4.617
				c-0.56,2.799,13.879-13.649,9.041-32.035C217.248,135.749,215.958,125.75,193.378,111.234z"/>
			<path style="fill:#62351D;" d="M197.572,186.957c-0.037,0-0.074-0.008-0.109-0.026c-0.11-0.055-0.161-0.183-0.119-0.298
				c6.457-18.012-3.479-39.797-23.114-50.671c-23.075-10.601-38.174-31.943-45.431-42.2l-0.776-1.096
				c-0.449-0.633-0.915-1.245-1.426-1.872c-18.961-37.706-36.934-41.855-48.685-38.701c-4.998,1.342-8.45,3.946-10.261,7.739
				c-3.614,7.566-0.007,18.045,2.465,23.618c0.03,0.069,0.027,0.147-0.008,0.213c-0.036,0.066-0.1,0.112-0.173,0.125l-0.147,0.03
				c-0.08,0.015-0.172-0.017-0.228-0.084c-1.549-1.863-5.186-4.692-12.119-2.713c-8.413,2.404-30.529,19.773-22.1,66.457
				c0.824,11.326,1.174,15.526,1.176,15.567c0.008,0.094-0.039,0.183-0.12,0.23c-0.082,0.046-0.182,0.043-0.259-0.01
				C10.333,145.4,9.776,115.808,11.603,95.103c1.326-14.683,8.174-29.822,19.284-42.63c10.088-11.63,20.882-18.262,27.14-19.695
				c17.281-16.961,40.03-18.886,52.081-18.517c18.549,0.564,36.107,7.109,44.75,16.678c11.956,5.616,21.792,16.27,28.447,30.814
				c5.775,12.618,8.712,27.54,8.066,40.966c10.395,6.524,22.448,2.204,22.57,2.16c0.102-0.039,0.224-0.001,0.286,0.094
				c0.062,0.094,0.05,0.219-0.027,0.301c-0.067,0.07-6.693,6.858-19.919,6.256c23.258,15.18,22.626,25.432,18.388,34.245
				c4.139,15.927-6.207,30.554-8.645,32.329c-0.207,0.149-0.509,0.329-0.741,0.179c-0.153-0.098-0.204-0.281-0.151-0.546
				c0.257-1.285,0.274-2.363,0.22-3.141c-0.511,2.196-1.92,6.766-5.577,12.253C197.727,186.919,197.65,186.957,197.572,186.957z
				 M84.273,50.759c11.553,0,26.84,8.166,42.729,39.772c0.488,0.591,0.96,1.212,1.416,1.854l0.776,1.096
				c7.232,10.222,22.281,31.492,45.254,42.047c19.198,10.632,29.213,31.585,23.948,49.443c4.134-6.789,4.734-11.778,4.741-11.832
				c0.012-0.114,0.104-0.204,0.219-0.215c0.115-0.006,0.22,0.061,0.254,0.171c0.023,0.076,0.558,1.895,0.004,4.703
				c0.402-0.237,1.422-1.237,2.781-3.206c4.673-6.775,8.646-17.893,5.78-28.782c-0.014-0.056-0.009-0.115,0.017-0.167
				c4.222-8.726,4.849-18.909-18.944-34.205c-0.094-0.06-0.134-0.175-0.099-0.28c0.035-0.105,0.126-0.177,0.247-0.166
				c10.908,0.763,17.441-3.554,19.627-5.324c-3.254,0.906-13.242,2.978-22.032-2.616c-0.074-0.047-0.117-0.13-0.113-0.217
				c0.67-13.387-2.252-28.288-8.015-40.882c-4.613-10.08-13.26-23.571-28.258-30.597c-0.029-0.014-0.055-0.034-0.077-0.057
				c-8.547-9.496-25.989-15.994-44.437-16.555c-11.983-0.359-34.617,1.548-51.774,18.427c-0.033,0.032-0.073,0.054-0.118,0.064
				c-6.17,1.383-16.896,7.966-26.948,19.554C20.21,65.522,13.403,80.564,12.086,95.146c-1.805,20.471-1.277,49.676,23.907,67.426
				c-0.115-1.422-0.47-5.92-1.132-15.033c-2.478-13.711-3.716-33.47,4.468-49.589c5.373-10.583,13.043-15.985,17.979-17.395
				c6.345-1.812,10.051,0.28,11.953,2.14c-2.464-5.831-5.546-15.747-2.047-23.073c1.875-3.927,5.433-6.618,10.573-7.998
				C79.781,51.089,81.952,50.759,84.273,50.759z M203.596,177.94C203.596,177.94,203.596,177.94,203.596,177.94L203.596,177.94z"/>
		</g>
	</g>
	<g>
		<path style="fill:#62351D;" d="M147.068,76.353c-2.537-4.102-5.096-8.195-7.688-12.264c-2.555-4.012-5.194-7.979-8.175-11.691
			c-5.15-6.411-11.534-12.179-19.287-15.198c-8.76-3.412-18.518-2.533-27.261,0.471c-7.636,2.624-15.01,7.169-19.36,14.148
			c-3.435,5.511-4.867,12.4-3.866,18.861c-1.728-2.348-4.655-3.662-7.515-3.962c-3.761-0.393-7.482,0.895-10.728,2.701
			c-5.903,3.285-10.764,8.366-13.985,14.285c-1.815,3.335-3.086,6.954-3.747,10.692c-0.037,0.211,0.253-0.009,0.275-0.123
			c1.24-6.407,4.273-12.403,8.639-17.247c2.162-2.399,4.655-4.501,7.4-6.204c3.145-1.952,6.731-3.465,10.491-3.431
			c3.605,0.032,7.041,1.687,9.124,4.656c0.058,0.082,0.172,0.051,0.285-0.03c0.2,0.952,0.452,1.892,0.763,2.813
			c0.322,0.955,0.702,1.887,1.132,2.798c0.066,0.139,0.36-0.151,0.309-0.274c-3.115-7.408-2.912-16.07,0.685-23.273
			c3.687-7.384,10.839-12.233,18.383-15.083c8.433-3.185,18-4.409,26.698-1.551c7.731,2.54,14.185,7.95,19.397,14.065
			c5.974,7.009,10.398,15.118,15.583,22.689c0.622,0.908,1.254,1.803,1.919,2.679C146.687,77.074,147.189,76.548,147.068,76.353z"/>
		<path style="fill:#62351D;" d="M209.689,127.728c-3.584-4.882-9.707-6.955-15.236-8.762c-2.887-0.944-5.78-1.861-8.582-3.041
			c-2.711-1.142-5.34-2.471-7.87-3.971c-10.162-6.028-18.657-14.726-24.614-24.914c-3.314-5.667-5.823-11.818-7.341-18.208
			c-0.03-0.128-0.325,0.135-0.298,0.264c2.452,11.608,8.156,22.337,16.133,31.093c3.959,4.346,8.497,8.181,13.435,11.369
			c4.963,3.204,10.298,5.634,15.895,7.494c6.45,2.144,14.908,5.18,19.604,10.41C211.033,129.703,209.884,127.993,209.689,127.728z"
			/>
		<path style="fill:#62351D;" d="M108.763,53.919c-5.713-4.886-12.492-8.887-20.068-9.828c-7.083-0.88-14.485,1.075-19.378,6.466
			c-2.396,2.64-4.046,5.945-4.371,9.517c-0.015,0.161,0.272-0.086,0.287-0.192c0.918-6.494,5.811-11.788,11.902-13.935
			c6.874-2.424,14.499-1.136,20.926,1.98c3.639,1.765,8.812,4.77,11.936,7.325C110.25,55.459,109.011,54.13,108.763,53.919z"/>
		<path style="fill:#62351D;" d="M201.694,131.702c-5.218-3.781-11.324-6.053-17.196-8.587
			c-11.233-4.847-22.278-11.215-29.907-21.014c-4.044-5.194-7.071-11.273-8.194-17.791c-0.015-0.087-0.234,0.101-0.219,0.197
			c1.853,11.881,9.515,21.875,18.987,28.904c4.959,3.68,10.398,6.659,16,9.236c5.927,2.727,12.161,4.891,17.711,8.374
			c5.43,3.408,10.568,8.845,12.521,15.053c0.085,0.269-0.026-0.88-0.072-1.104C210.186,139.442,206.15,134.931,201.694,131.702z"/>
		<path style="fill:#62351D;" d="M201.12,154.781c-1.964-5.932-5.028-11.489-9.019-16.299c-2.261-2.725-4.821-5.176-7.639-7.32
			c-0.163-0.124-1.641-0.938-1.486-0.815c9.75,7.723,17.484,20.457,19.414,32.737c0.543,3.455,0.721,6.973,0.523,10.464
			c-0.02,0.347,0.58-0.123,0.598-0.374C203.941,166.954,203.077,160.695,201.12,154.781z"/>
		<path style="fill:#62351D;" d="M192.21,103.124c-5.059-3.186-9.688-6.821-13.76-11.212c-4.26-4.593-7.842-9.757-11.04-15.132
			c-1.853-3.113-3.592-6.299-5.24-9.525c-0.069-0.135-0.36,0.152-0.303,0.269c5.467,11.245,11.963,22.282,21.602,30.476
			c2.553,2.171,5.287,4.145,8.295,5.638C191.978,103.746,192.408,103.249,192.21,103.124z"/>
		<path style="fill:#62351D;" d="M58.336,76.498c-8.968,0.351-17.179,5.239-22.841,12.036c-6.351,7.623-9.152,17.511-8.924,27.344
			c0.139,5.962,1.306,11.883,3.34,17.484c0.079,0.217,0.527-0.203,0.461-0.403c-3.22-9.717-4.308-20.378-1.601-30.354
			c2.375-8.753,7.859-16.517,15.623-21.292c4.161-2.559,8.898-4.167,13.783-4.485C58.297,76.82,58.518,76.491,58.336,76.498z"/>
		<path style="fill:#62351D;" d="M59.821,64.111c-3.105-7.299-4.202-15.346-3.055-23.202c0.326-2.23,0.821-4.435,1.503-6.583
			c0.047-0.148-0.177,0.018-0.203,0.093c-2.614,7.606-2.953,15.853-1.003,23.656c0.556,2.226,1.308,4.383,2.25,6.475
			C59.423,64.793,59.912,64.325,59.821,64.111z"/>
		<path style="fill:#62351D;" d="M150.796,40.476c-4.646-6.02-11.765-9.596-18.944-11.662c-8.005-2.305-16.516-2.827-24.749-1.576
			c-4.549,0.691-9,1.921-13.254,3.672c-0.111,0.046-0.297,0.391-0.087,0.307c7.678-3.04,15.987-4.411,24.236-4.036
			c7.826,0.356,15.833,2.209,22.74,5.984c3.643,1.992,6.977,4.59,9.661,7.769C150.525,41.083,150.93,40.649,150.796,40.476z"/>
		<path style="fill:#62351D;" d="M31.732,148.341c-6.603-9.584-10.152-21.043-10.166-32.679c-0.004-3.272,0.266-6.533,0.837-9.756
			c0.024-0.138-0.247,0.06-0.264,0.149c-2.284,11.555-0.764,23.671,4.183,34.354c1.379,2.979,3.022,5.816,4.928,8.488
			C31.385,149.086,31.889,148.57,31.732,148.341z"/>
		<path style="fill:#62351D;" d="M56.296,62.253c-2.982-3.687-6.918-6.795-11.46-8.295c-4.069-1.344-8.601-1.153-12.426,0.856
			c-1.951,1.025-3.625,2.518-4.792,4.393c-0.097,0.157,0.07,0.127,0.137,0.023c2.258-3.513,6.315-5.402,10.399-5.678
			c4.426-0.3,8.689,1.356,12.246,3.906c2.058,1.475,3.906,3.256,5.618,5.117C56.108,62.671,56.388,62.365,56.296,62.253z"/>
	</g>
	<g>
		<path style="fill:#FFAD7D;" d="M76.286,207.619c0,0,6.232,3.709,15.264,3.709s7.958-0.327,11.72,0.645
			c2.561,0.662,4.02,0.397,5.484-0.108c1.775-0.612,3.011-1.29,7.957-1.075c4.946,0.215,12.231-1.613,15.242-3.011
			c0,0-9.784,16.988-26.558,16.343C88.621,223.478,76.286,207.619,76.286,207.619z"/>
		<path style="fill:#B4715A;" d="M127.251,210.603c-2.471,1.64-5.046,3.072-7.853,4.052c-2.84,0.991-5.819,1.571-8.813,1.829
			c-6.344,0.546-12.775-0.363-18.847-2.219c-1.8-0.55-3.567-1.2-5.31-1.907c-1.723-0.699-3.441-1.498-4.9-2.667
			c-0.06-0.048-0.209,0.125-0.159,0.183c1.07,1.235,2.439,2.011,3.9,2.704c1.549,0.734,3.141,1.368,4.761,1.926
			c3.335,1.149,6.783,1.969,10.277,2.452c6.02,0.832,12.278,0.608,18.095-1.249c3.212-1.025,6.352-2.53,8.901-4.761
			C127.441,210.825,127.553,210.403,127.251,210.603z"/>
		<path style="fill:#B4715A;" d="M78.959,205.68c-1.075,0.138-2.116,0.799-2.894,1.531c-0.821,0.772-1.444,1.698-1.808,2.766
			c-0.032,0.095,0.027,0.14,0.112,0.125c0.102-0.018,0.208-0.145,0.246-0.233c0.376-0.867,0.948-1.657,1.665-2.274
			c0.741-0.637,1.591-1.031,2.491-1.392c0.131-0.053,0.25-0.186,0.294-0.318C79.096,205.793,79.094,205.663,78.959,205.68z"/>
		<path style="fill:#B4715A;" d="M134.345,205.7c-0.729-0.525-1.602-0.842-2.496-0.919c-0.118-0.01-0.347,0.297-0.212,0.319
			c0.778,0.126,1.493,0.457,2.123,0.924c-0.345,0.338-0.676,0.675-1.033,1.002c-0.463,0.424-0.96,0.823-1.457,1.208
			c-0.123,0.096-0.278,0.312-0.236,0.479c0.041,0.161,0.224,0.138,0.338,0.057c0.284-0.2,0.56-0.41,0.828-0.631
			c0.281-0.232,0.533-0.493,0.766-0.725c0.377-0.377,0.722-0.779,1.026-1.214c0.315,0.261,0.602,0.558,0.845,0.887
			c0.254,0.343,0.458,0.724,0.69,1.082c0.129,0.198,0.445-0.203,0.41-0.36C135.741,206.936,135.053,206.21,134.345,205.7z"/>
	</g>
	<g>
		<defs>
			<path id="SVGID_1_" d="M86.258,168.698c0,0,0.152-22.717-20.735-23.48c-12.655,0.152-16.314,7.623-16.466,10.673
				C48.904,158.941,54.85,174.949,86.258,168.698z"/>
		</defs>
		<clipPath id="SVGID_00000176041731750842981480000003278708668962531519_">
			<use xlink:href="#SVGID_1_"  style="overflow:visible;"/>
		</clipPath>
		<g style="clip-path:url(#SVGID_00000176041731750842981480000003278708668962531519_);">
			<g>
				<g>
					<path style="fill:#3A1300;" d="M58.582,156.112c0.729,6.162,6.314,10.566,12.476,9.837c6.162-0.729,10.566-6.314,9.837-12.476
						c-0.729-6.161-6.314-10.566-12.476-9.837C62.257,144.365,57.853,149.951,58.582,156.112z"/>
					<path style="fill:#603B28;" d="M60.084,155.935c0.631,5.332,5.464,9.142,10.795,8.512c5.332-0.63,9.143-5.464,8.512-10.795
						c-0.631-5.332-5.464-9.143-10.795-8.512C63.265,145.77,59.454,150.603,60.084,155.935z"/>
					<path d="M64.059,155.465c0.371,3.136,3.214,5.378,6.35,5.007c3.136-0.371,5.378-3.214,5.007-6.35
						c-0.371-3.136-3.214-5.378-6.35-5.007C65.93,149.485,63.688,152.328,64.059,155.465z"/>
				</g>
				<path style="fill:#FFFFFF;" d="M71.719,150.286c0.129,1.089,1.116,1.867,2.204,1.738c1.089-0.129,1.866-1.115,1.738-2.204
					c-0.129-1.088-1.115-1.866-2.204-1.738C72.368,148.211,71.59,149.198,71.719,150.286z"/>
				<path style="fill:#FFFFFF;" d="M74.514,154.38c0.076,0.645,0.661,1.106,1.306,1.03c0.645-0.076,1.106-0.661,1.03-1.306
					c-0.076-0.645-0.661-1.106-1.306-1.03C74.899,153.15,74.438,153.735,74.514,154.38z"/>
				<path style="fill:#543C2B;" d="M62.636,160.301c2.65,4.044,9.932,4.995,13.461,0.945c0.71-0.814,1.833-2.62,0.915-3.64
					c-0.104-0.116-0.45-0.256-0.549-0.046c-0.548,1.159-1.483,2.145-2.63,2.827c-0.995,0.593-2.156,0.947-3.327,1.017
					c-1.242,0.074-2.428-0.251-3.537-0.729c-2.377-1.023-3.4-3.266-4.015-5.751c-0.06-0.241-1.333-0.485-1.397-0.121
					C61.219,156.754,61.762,158.967,62.636,160.301z"/>
			</g>
		</g>
	</g>
	<g>
		<defs>
			<path id="SVGID_00000109007111205753350780000009845688668692534163_" d="M122.547,168.698c0,0-0.153-22.717,20.735-23.48
				c12.655,0.152,16.314,7.623,16.466,10.673C159.9,158.941,153.954,174.949,122.547,168.698z"/>
		</defs>
		<clipPath id="SVGID_00000042722198673922898010000000356265828942098109_">
			<use xlink:href="#SVGID_00000109007111205753350780000009845688668692534163_"  style="overflow:visible;"/>
		</clipPath>
		<g style="clip-path:url(#SVGID_00000042722198673922898010000000356265828942098109_);">
			<g>
				<g>
					<path style="fill:#3A1300;" d="M150.222,156.112c-0.729,6.162-6.314,10.566-12.476,9.837
						c-6.161-0.729-10.566-6.314-9.837-12.476c0.729-6.161,6.314-10.566,12.475-9.837
						C146.547,144.365,150.951,149.951,150.222,156.112z"/>
					<path style="fill:#603B28;" d="M148.72,155.935c-0.631,5.332-5.464,9.142-10.795,8.512c-5.332-0.63-9.143-5.464-8.512-10.795
						c0.63-5.332,5.464-9.143,10.795-8.512C145.54,145.77,149.35,150.603,148.72,155.935z"/>
					<path d="M144.745,155.465c-0.371,3.136-3.214,5.378-6.35,5.007c-3.136-0.371-5.378-3.214-5.007-6.35
						c0.371-3.136,3.214-5.378,6.35-5.007C142.874,149.485,145.116,152.328,144.745,155.465z"/>
				</g>
				<path style="fill:#FFFFFF;" d="M137.085,150.286c-0.129,1.089-1.115,1.867-2.204,1.738c-1.089-0.129-1.866-1.115-1.738-2.204
					c0.129-1.088,1.115-1.866,2.204-1.738C136.436,148.211,137.214,149.198,137.085,150.286z"/>
				<path style="fill:#FFFFFF;" d="M134.29,154.38c-0.076,0.645-0.661,1.106-1.306,1.03c-0.645-0.076-1.106-0.661-1.03-1.306
					c0.076-0.645,0.661-1.106,1.306-1.03C133.905,153.15,134.366,153.735,134.29,154.38z"/>
				<path style="fill:#543C2B;" d="M147.247,154.804c-0.063-0.365-1.337-0.12-1.397,0.121c-0.615,2.485-1.638,4.728-4.015,5.751
					c-1.11,0.477-2.296,0.802-3.538,0.729c-1.171-0.069-2.331-0.424-3.327-1.017c-1.147-0.683-2.082-1.669-2.63-2.827
					c-0.099-0.211-0.445-0.07-0.549,0.046c-0.917,1.02,0.206,2.826,0.915,3.64c3.528,4.05,10.811,3.099,13.461-0.945
					C147.042,158.967,147.585,156.754,147.247,154.804z"/>
			</g>
		</g>
	</g>
	<g>
		<path style="fill:#8E5B3A;" d="M193.378,111.234c13.87,0.968,20.644-6.129,20.644-6.129s-12.257,4.516-22.902-2.258
			c0.402-8.046-0.476-16.869-2.657-25.57c0.184,4.134,0.107,8.549-0.246,13.312c-2.581-8.709-12.257-16.451-12.257-16.451
			s2.58,8.709,7.742,14.838c-11.29-6.774-14.838-12.903-24.515-27.741c0.968,18.709,20.644,40.643,42.579,47.74
			c-14.515,1.613-22.902-8.064-22.902-8.064s5.484,9.354,14.193,14.838c-36.45-13.548-51.61-62.9-51.61-62.9s0.322,5.161,0,9.677
			c-6.774-16.128-20.644-29.999-38.063-30.966c22.902-8.064,46.449,6.774,46.449,6.774c-26.128-35.16-85.157-2.903-89.028,11.29
			c-0.353-12.953,5.184-21.603,12.357-27.371c-5.417,2.756-10.497,6.302-15.014,10.745c-1.687,0.378-3.632,1.117-5.744,2.171
			c1.074,4.869-0.779,14.614,1.304,22.948c-7.323-8.004-14.308-9.464-20.075-8.311c-5.136,5.44-10.041,11.99-13.912,19.386
			c7.376-10.356,18.574-18.394,33.288-7.135C42.639,58.356,26.592,74.65,24.864,96.623c0,0,16.047-37.279,33.082-23.454
			c0,0-24.441-0.494-31.601,30.86c-2.469,11.11,0,26.416,4.444,36.539c-5.925-4.938-13.085-24.688-8.147-38.02
			c-7.9,7.16-2.963,29.379,1.234,37.526c4.197,8.147-14.072-6.172-12.344-34.811c-0.083-0.038-0.168-0.071-0.252-0.108
			c-0.462,21.098,4.146,43.476,24.995,57.91c0,0-0.342-4.111-1.173-15.545c-8.246-45.664,12.669-63.989,22.272-66.733
			c7.033-2.009,10.746,0.835,12.372,2.791c0.05-0.009,0.097-0.022,0.148-0.031c-3.465-7.813-9.843-26.91,7.955-31.689
			c21.88-5.875,39.125,19.266,48.936,38.782c0.483,0.594,0.961,1.218,1.435,1.885c7.096,10,22.257,32.257,46.127,43.224
			c20.967,11.612,29.353,33.869,23.225,50.965c5.161-7.741,5.806-13.548,5.806-13.548s0.551,1.818-0.009,4.617
			c-0.56,2.799,13.879-13.649,9.041-32.035C217.248,135.749,215.958,125.75,193.378,111.234z M208.217,158.974
			c-3.226-12.58-9.677-23.225-29.676-31.289c12.258,6.129,21.612,20.644,22.257,39.353c-6.129-28.063-28.386-37.74-38.063-42.256
			c-9.677-4.516-21.612-16.773-34.192-40.321c-14.515-27.418-30.966-37.095-51.288-36.127c12.257-8.064,35.805,7.419,39.998,12.257
			c-0.583-1.061-1.184-2.062-1.799-3.008c-10.6-16.311-25.297-16.023-25.297-16.023c25.483-11.612,46.449,14.515,57.739,38.708
			c8.709,18.386,16.773,26.45,35.16,39.353c-19.999-6.774-27.741-19.354-37.74-37.418c1.29,17.741,9.355,33.547,29.353,39.675
			C206.926,132.201,209.829,142.846,208.217,158.974z"/>
	</g>
	<path style="fill:#62351D;" d="M41.899,60.508c0,0-30.875,21.968-23.948,61.717c0,0-5.258-14.648-1.078-29.922
		c-3.598,7.038-3.361,21.297-3.564,20.695C13.107,112.396,3.576,75.466,41.899,60.508z"/>
	<path style="fill:#62351D;" d="M110.157,42.206c0,0,17.419,2.58,31.289,30.644c0,0-2.581-3.871-9.354-9.354
		c-6.774-5.484,7.742,9.354-0.645,4.193c-8.387-5.161-0.645-0.323,1.613,10c-8.709-12.257-15.207-24.81-28.063-34.192
		c10.967,6.129,9.986,4.715,7.674,2.179C110.357,43.139,122.635,48.059,110.157,42.206z"/>
	<path style="fill:#62351D;" d="M74.352,31.238c0,0,34.837-23.225,67.739-3.548C136.285,20.271,102.093,4.788,74.352,31.238z"/>
	<path style="fill:#62351D;" d="M132.37,33.277c0,0,16.835,3.157,24.464,28.409c3.42,11.837,5.787,17.887,9.733,22.622
		c0,0-7.102-7.102-10.259-15.52c-3.157-8.417,1.315,9.47-2.894,0.789c-4.209-8.681-4.735-1.578,1.841,8.944
		c-7.365-9.47-8.418-18.15-12.626-27.62c-4.209-9.47-11.311-12.1-11.311-12.1s0.789-1.315,7.102,2.631
		C144.733,45.377,142.629,38.011,132.37,33.277z"/>
	<path style="fill:#62351D;" d="M155.622,38.574c0,0,17.314,9.462,29.192,40.265C183.204,58.103,169.715,41.997,155.622,38.574z"/>
	<path style="fill:#E2AB86;" d="M118.097,220.924c-3.957,1.53-8.069,2.431-12.326,2.37c-4.218-0.06-8.401-1.012-12.26-2.704
		c-2.221-0.974-4.348-2.209-6.259-3.703c-0.058-0.046-0.21,0.13-0.154,0.177c6.534,5.615,15.419,7.901,23.897,6.511
		c2.416-0.396,4.788-1.092,6.982-2.187C118.127,221.313,118.426,220.797,118.097,220.924z"/>
	<g>
		<path style="opacity:0.55;fill:#FFAD7D;" d="M94.641,216.941c0,0,5.326,2.219,12.278,1.775c3.107-0.296,0.444,3.994-6.953,2.663
			C92.57,220.048,89.907,215.314,94.641,216.941z"/>
		<path style="opacity:0.55;fill:#FFAD7D;" d="M112.237,219.325c0.089,0.472-0.56,0.99-1.449,1.157
			c-0.889,0.167-1.682-0.08-1.771-0.552s0.56-0.99,1.45-1.157C111.356,218.606,112.149,218.853,112.237,219.325z"/>
	</g>
	<g>
		
			<radialGradient id="SVGID_00000008866797258241978680000004866021570086741687_" cx="1027.3099" cy="185.63" r="21.3391" gradientTransform="matrix(-1 0 0 1 1091.4825 0)" gradientUnits="userSpaceOnUse">
			<stop  offset="0" style="stop-color:#F37422"/>
			<stop  offset="1" style="stop-color:#FFFFFF"/>
		</radialGradient>
		<path style="opacity:0.51;fill:url(#SVGID_00000008866797258241978680000004866021570086741687_);" d="M53.706,167.647
			c1.044-0.416,2.125-0.708,3.223-0.888c-0.627,0.247-1.247,0.518-1.854,0.818c-0.324,0.159-0.04,0.642,0.283,0.484
			c1.131-0.557,2.3-1.03,3.504-1.404c0.12-0.037,0.241-0.069,0.362-0.104c0.563-0.009,1.128,0.008,1.692,0.059
			c0.304,0.027,0.346-0.366,0.137-0.509c3.827-0.767,7.811-0.51,11.514,0.797c4.047,1.428,7.693,4.059,10.291,7.478
			c2.466,3.245,4.005,7.226,3.95,11.331c-0.06,4.534-2.132,8.709-5.269,11.915c-3.357,3.431-7.657,5.788-12.286,6.997
			c-4.365,1.141-9.051,1.322-13.45,0.256c-4.208-1.02-8.146-3.267-10.74-6.792c-2.825-3.838-3.935-8.784-3.398-13.484
			c0.551-4.827,2.741-9.537,6.167-12.992C49.505,169.924,51.495,168.529,53.706,167.647z"/>
		<path style="opacity:0.49;fill:#FDD1AB;" d="M50.454,173.933c-0.542,0.541-0.723,1.237-0.407,1.554
			c0.317,0.317,1.013,0.135,1.554-0.406c0.541-0.541,0.723-1.237,0.406-1.554C51.692,173.209,50.996,173.391,50.454,173.933z"/>
	</g>
	<g>
		
			<radialGradient id="SVGID_00000027567524884125019750000018370345007320629949_" cx="893.8757" cy="185.63" r="21.3391" gradientTransform="matrix(1 0 0 1 -748.4168 0)" gradientUnits="userSpaceOnUse">
			<stop  offset="0" style="stop-color:#F37422"/>
			<stop  offset="1" style="stop-color:#FFFFFF"/>
		</radialGradient>
		<path style="opacity:0.51;fill:url(#SVGID_00000027567524884125019750000018370345007320629949_);" d="M155.926,167.647
			c-1.044-0.416-2.124-0.708-3.223-0.888c0.627,0.247,1.247,0.518,1.854,0.818c0.324,0.159,0.04,0.642-0.283,0.484
			c-1.131-0.557-2.3-1.03-3.504-1.404c-0.12-0.037-0.241-0.069-0.362-0.104c-0.563-0.009-1.128,0.008-1.692,0.059
			c-0.304,0.027-0.345-0.366-0.137-0.509c-3.826-0.767-7.811-0.51-11.514,0.797c-4.047,1.428-7.693,4.059-10.291,7.478
			c-2.466,3.245-4.004,7.226-3.95,11.331c0.06,4.534,2.132,8.709,5.269,11.915c3.357,3.431,7.657,5.788,12.286,6.997
			c4.365,1.141,9.051,1.322,13.45,0.256c4.208-1.02,8.146-3.267,10.74-6.792c2.825-3.838,3.935-8.784,3.398-13.484
			c-0.551-4.827-2.741-9.537-6.167-12.992C160.127,169.924,158.137,168.529,155.926,167.647z"/>
		<path style="opacity:0.49;fill:#FDD1AB;" d="M159.177,173.933c0.541,0.541,0.723,1.237,0.406,1.554
			c-0.317,0.317-1.013,0.135-1.554-0.406c-0.541-0.541-0.723-1.237-0.407-1.554C157.94,173.209,158.636,173.391,159.177,173.933z"/>
	</g>
	<path style="fill:#FDD4B5;" d="M37.002,162.746c0,0,2.332,19.12,7.694,33.343c3.964,9.56,16.382,22.898,25.476,28.961
		c-13.057-6.995-24.077-16.603-28.274-31.059C37.702,179.534,37.002,162.746,37.002,162.746z"/>
</g>
</svg>
